<svg width="29" height="29" viewBox="0 0 29 29" fill="none" xmlns="http://www.w3.org/2000/svg">
<path d="M10.18 13.5967L13.9867 9.78L10.565 6.34667L9.22333 7.68667C9.06778 7.84223 8.87889 7.92722 8.65667 7.94167C8.43444 7.95611 8.23056 7.87111 8.045 7.68667C7.86056 7.50222 7.76833 7.30389 7.76833 7.09167C7.76833 6.87945 7.86056 6.68111 8.045 6.49667L9.375 5.16667L6.12167 1.91334L2.305 5.73L10.18 13.5967ZM23.2367 26.6633L27.0533 22.8467L23.8017 19.5933L22.4617 20.9233C22.2994 21.0856 22.1083 21.1722 21.8883 21.1833C21.6683 21.1944 21.4661 21.1078 21.2817 20.9233C21.0972 20.7389 21.0056 20.5422 21.0067 20.3333C21.0078 20.1244 21.0994 19.9278 21.2817 19.7433L22.6117 18.4033L19.2117 15.0133L15.4033 18.82L23.2367 26.6633ZM20.8867 5.25334L23.7667 8.13167L26.6767 5.22167L23.7883 2.33334L20.8867 5.25334ZM3.015 27.3333C2.62833 27.3333 2.30722 27.2056 2.05167 26.95C1.79611 26.6944 1.66778 26.3733 1.66667 25.9867V22.625C1.66667 22.4461 1.69778 22.2789 1.76 22.1233C1.82222 21.9678 1.92556 21.8178 2.07 21.6733L8.99 14.7533L1.07667 6.80834C0.775555 6.50722 0.625 6.14834 0.625 5.73167C0.625 5.315 0.775555 4.95556 1.07667 4.65334L5.045 0.68667C5.34611 0.385559 5.705 0.236114 6.12167 0.238336C6.53833 0.240558 6.89722 0.392781 7.19833 0.695003L15.1867 8.64L22.6317 1.185C22.815 1.00167 23.0083 0.869447 23.2117 0.788336C23.415 0.707225 23.6317 0.666669 23.8617 0.666669C24.0917 0.666669 24.3083 0.707225 24.5117 0.788336C24.715 0.869447 24.9089 1.00167 25.0933 1.185L27.8133 4.01334C27.9978 4.19667 28.1256 4.39 28.1967 4.59334C28.2678 4.79667 28.3028 5.01334 28.3017 5.24334C28.3006 5.47334 28.265 5.68334 28.195 5.87334C28.125 6.06334 27.9983 6.25 27.815 6.43334L20.4317 13.8567L28.315 21.8017C28.615 22.1028 28.765 22.4617 28.765 22.8783C28.765 23.295 28.615 23.6539 28.315 23.955L24.3467 27.9217C24.0456 28.2239 23.6867 28.375 23.27 28.375C22.8533 28.375 22.4944 28.2244 22.1933 27.9233L14.2467 20.01L7.32667 26.93C7.18222 27.0744 7.03222 27.1778 6.87667 27.24C6.72111 27.3022 6.55389 27.3333 6.375 27.3333H3.015Z" fill="white"/>
</svg>
