<svg width="31" height="31" viewBox="0 0 31 31" fill="none" xmlns="http://www.w3.org/2000/svg">
<path d="M21.2557 27.6417C19.4577 28.4967 17.491 28.9381 15.5001 28.9334C8.09311 28.9334 2.0667 22.907 2.0667 15.5001C2.0667 12.3226 3.15893 9.32175 5.1667 6.91511V9.30005H7.23337V3.10004H1.03336V5.16671H3.9701C1.40803 7.99776 -0.00738322 11.6818 2.89652e-05 15.5001C2.89652e-05 24.0468 6.95334 31.0001 15.5001 31.0001C17.7984 31.0049 20.0688 30.495 22.1444 29.5079L21.2557 27.6417Z" fill="white"/>
<path d="M20.6669 8.26669C17.4015 8.26669 14.7242 10.8056 14.4896 14.012C13.3536 12.9755 11.8714 12.4006 10.3335 12.4H6.2002V16.5334C6.2002 19.9527 8.98193 22.7334 12.4002 22.7334H14.4669V26.8667H16.5335V18.6H18.6002C22.0185 18.6 24.8002 15.8193 24.8002 12.4V8.26669H20.6669ZM12.4002 20.6667C10.1207 20.6667 8.26687 18.8129 8.26687 16.5334V14.4667H10.3335C12.6131 14.4667 14.4669 16.3205 14.4669 18.6V19.2056L12.0974 16.8361L10.6363 18.2973L13.0057 20.6667H12.4002ZM22.7336 12.4C22.7336 14.6796 20.8798 16.5334 18.6002 16.5334H17.9947L20.3641 14.1639L18.903 12.7028L16.5335 15.0722V14.4667C16.5335 12.1872 18.3873 10.3334 20.6669 10.3334H22.7336V12.4Z" fill="white"/>
<path d="M30.9998 15.5001C30.9998 6.95335 24.0465 3.33734e-05 15.4998 3.33734e-05C13.2014 -0.00475176 10.9311 0.505096 8.85547 1.49217L9.74414 3.35837C11.5422 2.50339 13.5089 2.06203 15.4998 2.0667C22.9068 2.0667 28.9332 8.09311 28.9332 15.5001C28.9332 18.6776 27.8409 21.6784 25.8332 24.085V21.7001H23.7665V27.9001H29.9665V25.8334H27.0298C29.5918 23.0024 31.0073 19.3183 30.9998 15.5001Z" fill="white"/>
</svg>
