<svg width="33" height="24" viewBox="0 0 33 24" fill="none" xmlns="http://www.w3.org/2000/svg">
<path d="M3.08322 8.69999H1.20489C0.936 8.69999 0.736001 8.58555 0.604889 8.35666C0.472667 8.12888 0.482667 7.89777 0.634889 7.66332L4.06489 2.15332C4.16045 2.00888 4.28822 1.95888 4.44822 2.00332C4.60711 2.04777 4.68656 2.15999 4.68656 2.33999V5.74999H6.56489C6.83378 5.74999 7.03378 5.86388 7.16489 6.09166C7.296 6.31944 7.286 6.55055 7.13489 6.78499L3.70489 12.2633C3.60933 12.4078 3.48156 12.4633 3.32156 12.43C3.16156 12.3967 3.08211 12.29 3.08322 12.11V8.69999ZM8.42322 23.6667C7.26878 23.6667 6.28544 23.2611 5.47322 22.45C4.66211 21.6378 4.25656 20.6544 4.25656 19.5C4.25656 18.9333 4.38989 18.4139 4.65656 17.9417C4.92322 17.4694 5.216 17.0117 5.53489 16.5683L14.4349 1.99999H9.68489C9.44822 1.99999 9.25211 1.92055 9.09656 1.76166C8.941 1.60166 8.86322 1.40332 8.86322 1.16666C8.86322 0.929991 8.94267 0.731658 9.10156 0.571658C9.26044 0.411658 9.45822 0.332213 9.69489 0.333324H23.9816C24.4082 0.333324 24.7566 0.504436 25.0266 0.846658C25.2954 1.18888 25.3816 1.56999 25.2849 1.98999L24.3299 6.16666H26.4482C26.8693 6.16666 27.2732 6.26332 27.6599 6.45666C28.0466 6.64999 28.361 6.91221 28.6032 7.24332L31.5982 11.24C31.8404 11.5644 31.9977 11.9028 32.0699 12.255C32.1432 12.6061 32.1488 12.975 32.0866 13.3617L31.0899 18.4233C31.0277 18.7478 30.8704 19.0083 30.6182 19.205C30.366 19.4017 30.0777 19.5 29.7532 19.5H28.9482C28.9482 20.6544 28.5427 21.6378 27.7316 22.45C26.9204 23.2622 25.9371 23.6678 24.7816 23.6667C23.626 23.6655 22.6432 23.26 21.8332 22.45C21.0232 21.64 20.6177 20.6567 20.6166 19.5H12.5882C12.5882 20.6544 12.1821 21.6378 11.3699 22.45C10.5577 23.2622 9.57433 23.6678 8.41989 23.6667M8.49822 22C9.18378 22 9.77211 21.755 10.2632 21.265C10.7543 20.7739 10.9999 20.1855 10.9999 19.5C10.9999 18.8144 10.7549 18.2261 10.2649 17.735C9.77489 17.2439 9.18656 16.9989 8.49989 17C7.81322 17.0011 7.22489 17.2461 6.73489 17.735C6.24489 18.2261 5.99989 18.8144 5.99989 19.5C5.99989 20.1855 6.24489 20.7739 6.73489 21.265C7.226 21.755 7.81267 22 8.49822 22ZM24.7832 22C25.4688 22 26.0566 21.755 26.5466 21.265C27.0366 20.7739 27.2816 20.1855 27.2816 19.5C27.2816 18.8144 27.0366 18.2261 26.5466 17.735C26.0566 17.2439 25.4682 16.9989 24.7816 17C24.0949 17.0011 23.5071 17.2461 23.0182 17.735C22.5271 18.2261 22.2816 18.8144 22.2816 19.5C22.2816 20.1855 22.5266 20.7739 23.0166 21.265C23.5077 21.755 24.0966 22 24.7832 22ZM22.4766 14.0833H30.2316L30.5249 12.6L26.9616 7.83332H23.9316L22.4766 14.0833Z" fill="white"/>
</svg>
