<svg width="34" height="29" viewBox="0 0 34 29" fill="none" xmlns="http://www.w3.org/2000/svg">
<path d="M0.193359 28.6533V25.91C0.193359 25.1856 0.386693 24.5383 0.773359 23.9683C1.16003 23.3983 1.70558 22.9367 2.41003 22.5833C3.76225 21.9044 5.26336 21.3572 6.91336 20.9417C8.56336 20.5272 10.2122 20.32 11.86 20.32C13.5078 20.32 15.1561 20.5272 16.805 20.9417C18.4539 21.3561 19.955 21.9033 21.3084 22.5833C22.0128 22.9356 22.5584 23.3967 22.945 23.9667C23.3328 24.5378 23.5267 25.1856 23.5267 25.91V28.6533H0.193359ZM1.86003 26.9867H21.86V25.91C21.86 25.4544 21.73 25.0806 21.47 24.7883C21.21 24.4961 20.8911 24.2483 20.5134 24.045C19.47 23.5028 18.1639 23.0244 16.595 22.61C15.025 22.1944 13.4461 21.9867 11.8584 21.9867C10.2706 21.9867 8.69225 22.1944 7.12336 22.61C5.55447 23.0256 4.24836 23.5039 3.20503 24.045C2.82725 24.2483 2.50836 24.4961 2.24836 24.7883C1.98836 25.0817 1.85836 25.4556 1.85836 25.91L1.86003 26.9867ZM11.86 16.6033C10.4322 16.6033 9.24169 16.1267 8.28836 15.1733C7.33503 14.22 6.85891 12.9656 6.86003 11.41H5.86503V10.1283H6.85836C6.90169 9.28389 7.07947 8.51723 7.39169 7.82834C7.7028 7.13723 8.20891 6.47889 8.91003 5.85334V8.07667H10.1934V5.25C10.4211 5.16667 10.6795 5.09334 10.9684 5.03C11.2572 4.96778 11.5545 4.93667 11.86 4.93667C12.1656 4.93667 12.4622 4.96778 12.75 5.03C13.0378 5.09223 13.2967 5.16556 13.5267 5.25V8.07667H14.8084V5.85334C15.5306 6.47889 16.0417 7.13667 16.3417 7.82667C16.6439 8.51667 16.8161 9.28389 16.8584 10.1283H17.8534V11.4117H16.86C16.86 12.9672 16.3834 14.2211 15.43 15.1733C14.4767 16.1256 13.2867 16.6022 11.86 16.6033ZM11.86 14.9367C12.8189 14.9367 13.6139 14.6206 14.245 13.9883C14.8772 13.3572 15.1934 12.5617 15.1934 11.6017H8.52669C8.52669 12.5617 8.84225 13.3572 9.47336 13.9883C10.1045 14.6194 10.9 14.9367 11.86 14.9367ZM24.4234 19.7433L24.3017 18.5567C24.0917 18.5011 23.8728 18.4122 23.645 18.29C23.4172 18.1678 23.2234 18.0261 23.0634 17.865L21.9617 18.3467L21.32 17.23L22.3017 16.525C22.2584 16.3994 22.2367 16.2844 22.2367 16.18V15.5033C22.2367 15.4089 22.2584 15.2878 22.3017 15.14L21.32 14.435L21.9617 13.32L23.0634 13.8017C23.2178 13.6472 23.41 13.5072 23.64 13.3817C23.8711 13.255 24.0917 13.1639 24.3017 13.1083L24.4234 11.9233H25.705L25.8267 13.1083C26.0367 13.1639 26.2567 13.255 26.4867 13.3817C26.7178 13.5072 26.9106 13.6472 27.065 13.8017L28.1667 13.32L28.8084 14.4367L27.8267 15.14C27.87 15.2878 27.8917 15.4089 27.8917 15.5033V16.18C27.8917 16.2844 27.87 16.3994 27.8267 16.525L28.8084 17.2317L28.1667 18.3467L27.0634 17.865C26.9034 18.025 26.7095 18.1667 26.4817 18.29C26.2539 18.4122 26.0356 18.5011 25.8267 18.5567L25.705 19.7433H24.4234ZM25.0634 17.34C25.4822 17.34 25.8378 17.1933 26.13 16.9C26.4234 16.6078 26.57 16.2522 26.57 15.8333C26.57 15.4144 26.4239 15.0589 26.1317 14.7667C25.8395 14.4744 25.4839 14.3278 25.065 14.3267C24.6461 14.3256 24.29 14.4722 23.9967 14.7667C23.7034 15.0611 23.5567 15.4167 23.5567 15.8333C23.5567 16.25 23.7034 16.6056 23.9967 16.9C24.29 17.1944 24.6456 17.3411 25.0634 17.34ZM28.4484 10.705L28.3067 9.405C27.9934 9.34167 27.6628 9.21556 27.315 9.02667C26.9684 8.83778 26.6906 8.60667 26.4817 8.33334L25.2434 8.85167L24.5267 7.62167L25.6217 6.82167C25.5661 6.66056 25.5272 6.49556 25.505 6.32667C25.4839 6.15778 25.4734 5.99334 25.4734 5.83334C25.4734 5.67334 25.4845 5.50889 25.5067 5.34C25.5289 5.17111 25.5672 5.00667 25.6217 4.84667L24.525 4.045L25.2434 2.81334L26.48 3.33334C26.69 3.06 26.9689 2.82889 27.3167 2.64C27.6634 2.45111 27.9939 2.32556 28.3084 2.26334L28.4484 0.96167H29.885L30.025 2.26167C30.3395 2.325 30.67 2.45111 31.0167 2.64C31.3645 2.82889 31.6428 3.06 31.8517 3.33334L33.09 2.81334L33.8067 4.045L32.7117 4.845C32.7672 5.00611 32.8061 5.17111 32.8284 5.34C32.8484 5.50889 32.8584 5.67334 32.8584 5.83334C32.8584 5.99334 32.8478 6.15778 32.8267 6.32667C32.8056 6.49556 32.7672 6.66 32.7117 6.82L33.8084 7.62167L33.09 8.85334L31.8534 8.33334C31.6434 8.60667 31.365 8.83778 31.0184 9.02667C30.6706 9.21556 30.34 9.34111 30.0267 9.40334L29.885 10.705H28.4484ZM29.1667 8.10834C29.8145 8.10834 30.3556 7.89111 30.79 7.45667C31.2245 7.02223 31.4417 6.48111 31.4417 5.83334C31.4417 5.18556 31.2245 4.64445 30.79 4.21C30.3556 3.77556 29.8145 3.55778 29.1667 3.55667C28.5189 3.55556 27.9778 3.77334 27.5434 4.21C27.1089 4.64667 26.8911 5.18778 26.89 5.83334C26.8889 6.47889 27.1067 7.02 27.5434 7.45667C27.98 7.89334 28.5211 8.11056 29.1667 8.10834Z" fill="white"/>
</svg>
