<svg width="30" height="30" viewBox="0 0 30 30" fill="none" xmlns="http://www.w3.org/2000/svg">
<path d="M26.4039 11.2789C27.2385 13.843 27.1851 16.6135 26.2522 19.1436C25.3194 21.6736 23.5614 23.8156 21.262 25.2241C18.9626 26.6327 16.2557 27.2256 13.5781 26.9072C10.9004 26.5889 8.408 25.3778 6.50294 23.4694C4.59788 21.561 3.3912 19.0665 3.07755 16.3883C2.7639 13.71 3.36157 11.0042 4.77414 8.70727C6.18671 6.41033 8.33183 4.65617 10.8635 3.72775C13.3952 2.79932 16.1658 2.75076 18.7284 3.58989L17.1579 5.16039C17.0719 5.24639 16.9929 5.33889 16.9209 5.43789C14.869 5.02374 12.7384 5.28094 10.844 6.17146C8.94961 7.06198 7.39213 8.53852 6.40188 10.3827C5.41163 12.2269 5.04119 14.3409 5.34535 16.4119C5.64951 18.4829 6.61212 20.4011 8.09082 21.8827C9.56951 23.3643 11.4858 24.3306 13.5562 24.6389C15.6266 24.9471 17.7413 24.5808 19.5874 23.5942C21.4336 22.6076 22.9132 21.053 23.8074 19.1604C24.7016 17.2677 24.963 15.1376 24.5529 13.0849C24.6555 13.0121 24.7519 12.9308 24.8409 12.8419L26.4039 11.2789ZM22.3464 13.5004C22.4464 13.9864 22.4964 14.4864 22.4964 15.0004C22.496 16.5482 22.0167 18.0579 21.1243 19.3225C20.2319 20.5871 18.9701 21.5446 17.512 22.0638C16.0539 22.5829 14.4709 22.6382 12.9801 22.2221C11.4893 21.806 10.1638 20.9389 9.18529 19.7396C8.20681 18.5404 7.62332 17.0678 7.51485 15.5239C7.40638 13.9799 7.77824 12.4402 8.57944 11.1159C9.38063 9.79165 10.5719 8.74769 11.9899 8.12724C13.4078 7.50678 14.983 7.34022 16.4994 7.65039V9.96939C15.3799 9.63519 14.1809 9.68396 13.0922 10.108C12.0036 10.532 11.0874 11.3071 10.4889 12.3105C9.89037 13.3138 9.64362 14.4882 9.78774 15.6476C9.93185 16.807 10.4586 17.8852 11.2845 18.7115C12.1105 19.5379 13.1885 20.065 14.3478 20.2096C15.5072 20.3543 16.6817 20.108 17.6853 19.5099C18.6889 18.9118 19.4644 17.996 19.8889 16.9075C20.3133 15.819 20.3626 14.62 20.0289 13.5004H22.3464ZM14.9964 17.2504C15.3415 17.2506 15.6819 17.1714 15.9915 17.019C16.3011 16.8665 16.5714 16.6449 16.7817 16.3713C16.9919 16.0977 17.1364 15.7794 17.204 15.441C17.2716 15.1027 17.2604 14.7533 17.1714 14.4199L19.5444 12.0454L19.5894 12.0004H23.2494C23.348 12.0006 23.4456 11.9813 23.5367 11.9437C23.6278 11.9062 23.7106 11.851 23.7804 11.7814L26.7804 8.78139C26.8856 8.67649 26.9572 8.54274 26.9863 8.39707C27.0153 8.25141 27.0005 8.1004 26.9436 7.96319C26.8867 7.82598 26.7904 7.70875 26.6668 7.62636C26.5432 7.54397 26.3979 7.50012 26.2494 7.50039H22.4994V3.75039C22.4994 3.60217 22.4554 3.45728 22.3731 3.33401C22.2908 3.21075 22.1738 3.11465 22.0369 3.05783C21.9 3.00102 21.7493 2.98604 21.6039 3.01479C21.4585 3.04355 21.3249 3.11474 21.2199 3.21939L18.2199 6.21939C18.15 6.28904 18.0946 6.3718 18.0568 6.46292C18.0189 6.55404 17.9994 6.65173 17.9994 6.75039V10.4104L17.9544 10.4554L15.5814 12.8269C15.2477 12.737 14.8979 12.7253 14.5589 12.7925C14.2199 12.8596 13.901 13.004 13.6268 13.2143C13.3527 13.4247 13.1306 13.6953 12.978 14.0053C12.8253 14.3153 12.746 14.6563 12.7464 15.0019C12.7464 15.5986 12.9835 16.1709 13.4054 16.5929C13.8274 17.0148 14.3997 17.2519 14.9964 17.2519" fill="white"/>
</svg>
