<svg width="30" height="30" viewBox="0 0 30 30" fill="none" xmlns="http://www.w3.org/2000/svg">
<path d="M12.5 22.5V22.3662C12.5 21.3725 11.88 20.5063 11.1038 19.8863C10.0906 19.0782 9.35362 17.9753 8.99487 16.73C8.63613 15.4847 8.67335 14.1588 9.10137 12.9356C9.52939 11.7124 10.327 10.6525 11.3839 9.90259C12.4408 9.15268 13.7047 8.74985 15.0006 8.74985C16.2965 8.74985 17.5604 9.15268 18.6173 9.90259C19.6742 10.6525 20.4719 11.7124 20.8999 12.9356C21.3279 14.1588 21.3651 15.4847 21.0064 16.73C20.6476 17.9753 19.9107 19.0782 18.8975 19.8863C18.12 20.5075 17.5 21.3725 17.5 22.3662V22.5M12.5 22.5V25C12.5 25.3315 12.6317 25.6495 12.8661 25.8839C13.1005 26.1183 13.4185 26.25 13.75 26.25H16.25C16.5815 26.25 16.8995 26.1183 17.1339 25.8839C17.3683 25.6495 17.5 25.3315 17.5 25V22.5M12.5 22.5H17.5M25 15H26.25M5 15H3.75M15 5V3.75M22.0712 7.92875L22.955 7.045M7.93 7.92875L7.045 7.045M15 18.75V16.25" stroke="white" stroke-width="2" stroke-linecap="round" stroke-linejoin="round"/>
</svg>
