<?xml version="1.0" encoding="utf-8"?>
<!-- Generator: Adobe Illustrator 27.3.1, SVG Export Plug-In . SVG Version: 6.00 Build 0)  -->
<svg version="1.1" id="Layer_1" xmlns="http://www.w3.org/2000/svg" xmlns:xlink="http://www.w3.org/1999/xlink" x="0px" y="0px"
	 viewBox="0 0 1080 1877" style="enable-background:new 0 0 1080 1877;" xml:space="preserve">
<style type="text/css">
	.st0{fill:none;stroke:#2E88BD;stroke-width:2;stroke-miterlimit:10;}
	.st1{fill:#FFFFFF;stroke:#2E88BD;stroke-width:2;stroke-miterlimit:10;}
	.st2{fill:#2E88BD;}
	.st3{fill:none;stroke:#2E88BD;stroke-width:3.7408;stroke-miterlimit:10;}
	.st4{fill:#FFFFFF;stroke:#2E88BD;stroke-width:3.6925;stroke-miterlimit:10;}
	.st5{fill:#231F20;}
	.st6{font-family:'Poppins-SemiBold';}
	.st7{font-size:30.1008px;}
	.st8{fill:#3189BC;}
	.st9{font-size:19.9247px;}
	.st10{fill:none;}
	.st11{font-family:'Poppins-Regular';}
	.st12{font-size:13.9851px;}
	.st13{fill:#FFFFFF;stroke:#000000;stroke-width:1.0646;stroke-miterlimit:10;}
	.st14{fill:#FFFFFF;stroke:#000000;stroke-width:0.9721;stroke-miterlimit:10;}
	.st15{fill:#FFFFFF;stroke:#000000;stroke-miterlimit:10;}
</style>
<path class="st3" d="M-458.16,141.43H701.02C773,143,831,176,830.15,242.59C829.17,319,777,341,706.33,345.03H338.24
	C269,346,226.32,370,225.04,438.51C224,494,274,520,336.48,517.9h403.29c0,0,119.23-5.9,121.16,78.14
	c2,86.94-81.75,91.55-101.29,93.87c-2.25,0.27-4.53,0.4-6.81,0.4H400.15c-108.92-0.5-156.99,62.75-159.19,126.77
	c-2.27,65.94,54.59,137,157.43,133.17c168.63,0,417.44,0.38,417.44,0.38C888,954,946,991,944.95,1051.8
	C945,1120,899,1156,821.14,1154.24H508.05c-166.66-0.06-199.14,53.4-199.58,120.19C308,1345,344,1402,506.28,1401.34h315.15
	c81.13,0,123.87,45.3,129.71,89.12c6.41,48.05-38.07,105.29-122.64,105.29H319.08c-64.72,3.5-109.33,42.74-101.41,80.36
	c6.59,31.31,48.72,57.42,101.41,59.47c314.46,0,880.62,0,1195.07,0"/>
<g>
	<circle class="st4" cx="815.94" cy="242.29" r="48.89"/>
	<g>
		<path class="st2" d="M812.83,230.46c3.06,0.68,6.07,1.35,9.08,2.02c2.13,0.47,4.27,0.93,6.4,1.42c2.79,0.65,4.65,2.99,4.66,5.86
			c0.01,2.94-0.02,5.87,0.01,8.81c0.02,1.89-0.28,3.7-0.88,5.48c-0.87,2.58-1.75,5.15-2.54,7.75c-0.29,0.96-0.45,2-0.47,3.01
			c-0.07,2.56-0.02,5.13-0.02,7.69c0,2.51-1.65,4.15-4.16,4.15c-4.33,0-8.67,0-13,0c-2.44,0-4.08-1.61-4.1-4.05
			c-0.02-2.56-0.02-5.13,0-7.69c0.01-2.72-0.97-4.93-3.22-6.54c-0.93-0.66-1.82-1.38-2.72-2.08c-2.11-1.63-3.17-3.79-3.23-6.44
			c-0.02-0.95-0.06-1.91,0.01-2.87c0.08-1.23-0.25-2.28-1.08-3.21c-0.6-0.67-0.99-1.45-1.07-2.37c-0.26-2.98,2.71-4.67,4.91-4.24
			c0.81,0.16,1.6,0.45,2.45,0.69c0.01-0.19,0.03-0.41,0.03-0.62c0-3.26-0.01-6.52,0.01-9.79c0-0.5-0.13-0.78-0.58-1.05
			c-3.51-2.07-5.35-6.24-4.54-10.17c0.85-4.14,4.17-7.24,8.31-7.77c4.52-0.58,8.87,2.12,10.38,6.44c1.5,4.29-0.18,9.07-4.06,11.43
			c-0.44,0.27-0.6,0.54-0.58,1.04C812.86,228.38,812.83,229.4,812.83,230.46z M812.83,232.83c0,1.07,0.01,2.12,0,3.16
			c-0.01,0.79-0.48,1.32-1.14,1.32c-0.65-0.01-1.08-0.5-1.1-1.27c-0.01-0.21,0-0.42,0-0.63c0-5.48,0-10.95,0-16.43
			c0-0.28,0.01-0.56-0.03-0.84c-0.18-1.29-1.17-2.15-2.38-2.08c-1.2,0.07-2.05,1.05-2.05,2.38c0,8.04-0.01,16.08,0.01,24.12
			c0,2.07,0.7,3.92,2.01,5.53c0.13,0.16,0.28,0.32,0.39,0.49c0.33,0.53,0.27,1.03-0.18,1.45c-0.44,0.41-1.05,0.4-1.52-0.02
			c-0.21-0.19-0.38-0.41-0.55-0.63c-1.69-2.16-2.54-4.61-2.37-7.34c0.07-1.18-0.48-1.78-1.41-2.2c-0.46-0.21-0.96-0.36-1.46-0.43
			c-0.87-0.13-1.65,0.16-2.12,0.92c-0.47,0.75-0.1,1.43,0.4,2.03c0.15,0.18,0.28,0.37,0.42,0.56c0.82,1.02,1.17,2.2,1.17,3.5
			c0,1.1,0.01,2.19,0,3.29c-0.03,2.04,0.81,3.64,2.42,4.86c0.95,0.72,1.88,1.45,2.83,2.17c2.61,1.99,3.86,4.65,3.87,7.9
			c0.01,2.54,0,5.08,0,7.62c0,1.56,0.59,2.15,2.15,2.15c4.15,0,8.3,0,12.45,0c1.55,0,2.17-0.61,2.17-2.15
			c0-2.49-0.07-4.99,0.03-7.48c0.05-1.29,0.25-2.6,0.61-3.83c0.77-2.63,1.72-5.21,2.55-7.82c0.28-0.88,0.57-1.8,0.6-2.71
			c0.1-3.42,0.08-6.85,0.13-10.27c0.04-2.75-1.68-4.14-4.47-4.3c0,1.16,0.01,2.33,0,3.49c-0.01,0.79-0.48,1.33-1.13,1.33
			c-0.67,0-1.1-0.51-1.11-1.33c-0.01-1.19,0.02-2.38-0.02-3.57c-0.01-0.2-0.21-0.54-0.38-0.58c-1.32-0.33-2.66-0.61-4.06-0.92
			c0,0.66,0,1.27,0,1.87c0,0.63,0.03,1.26-0.01,1.89c-0.04,0.64-0.55,1.07-1.17,1.05c-0.59-0.02-1.04-0.44-1.05-1.08
			c-0.02-1.39-0.01-2.79-0.01-4.22c-1.33-0.3-2.59-0.59-3.86-0.88C813.27,232.86,813.08,232.86,812.83,232.83z M812.83,223.95
			c2.65-2.04,3.58-5.54,2.39-8.58c-1.2-3.06-4.34-5.01-7.58-4.71c-3.33,0.31-6.11,2.84-6.68,6.09c-0.49,2.79,0.84,6.16,2.9,7.18
			c0-0.28,0-0.53,0-0.78c0.01-1.75-0.04-3.49,0.03-5.24c0.1-2.52,2.62-4.49,5.09-4.06c2.23,0.39,3.81,2.22,3.83,4.48
			C812.84,220.16,812.83,221.99,812.83,223.95z"/>
		<path class="st2" d="M794.1,218c0.07-3.33,1.14-6.36,3.32-8.98c0.55-0.67,1.21-0.8,1.75-0.36c0.54,0.44,0.53,1.1,0,1.78
			c-3.56,4.51-3.74,9.89-0.5,14.68c0.47,0.69,0.42,1.31-0.13,1.73c-0.56,0.42-1.21,0.27-1.73-0.44
			C795.01,223.93,794.13,221.13,794.1,218z"/>
		<path class="st2" d="M822.62,218.1c-0.18,3.04-1.04,5.8-2.81,8.24c-0.23,0.31-0.62,0.64-0.97,0.68c-0.34,0.04-0.89-0.21-1.02-0.49
			c-0.17-0.34-0.12-0.9,0.05-1.28c0.58-1.31,1.44-2.52,1.84-3.88c1.15-3.84,0.38-7.4-2.02-10.6c-0.13-0.17-0.27-0.32-0.39-0.49
			c-0.42-0.57-0.37-1.22,0.12-1.62c0.49-0.4,1.15-0.34,1.61,0.19c1.35,1.55,2.35,3.3,2.87,5.29
			C822.23,215.44,822.38,216.78,822.62,218.1z"/>
	</g>
</g>
<g>
	<circle class="st4" cx="934.79" cy="1500.82" r="48.89"/>
	<path class="st2" d="M959.68,1511.91c1.76,0,3.47,0,5.18,0c1.09,0,1.28,0.2,1.28,1.3c0,5.07,0,10.15,0,15.22
		c0,1-0.21,1.22-1.21,1.22c-19.68,0-39.35,0-59.03,0c-1.03,0-1.24-0.21-1.24-1.27c0-5.07,0-10.15,0-15.22c0-1.05,0.2-1.25,1.26-1.25
		c1.73,0,3.46,0,5.17,0c0.54-2.04,0.94-4.05,1.6-5.98c1.37-3.99,2.88-7.92,4.32-11.89c0.23-0.63,0.73-0.85,1.27-1.01
		c2.3-0.67,4.62-1.27,6.9-1.99c1.24-0.39,2.43-0.96,3.62-1.49c0.57-0.25,0.77-0.72,0.79-1.37c0.03-0.98-0.18-1.76-0.86-2.54
		c-1.39-1.59-2.13-3.53-2.68-5.56c-0.14-0.52-0.35-1.02-0.61-1.49c-1.98-3.69-2.46-7.43,0.19-10.95c2.38-3.15,5.45-5.47,9.48-6.13
		c3.63-0.59,6.6,0.76,8.87,3.51c2.61,3.16,3.69,6.8,2.53,10.86c-0.24,0.86-0.67,1.72-1.21,2.43c-0.56,0.73-0.89,1.51-1.13,2.37
		c-0.53,1.9-1.4,3.62-2.61,5.2c-0.26,0.34-0.22,0.92-0.32,1.38c-0.34,1.58,0.49,2.42,1.86,2.86c2.58,0.83,5.17,1.65,7.77,2.4
		c2.59,0.75,2.61,0.71,3.63,3.2c2.09,5.07,3.87,10.25,5,15.63C959.55,1511.51,959.61,1511.67,959.68,1511.91z M906.31,1517.74
		c19.44,0,38.81,0,58.19,0c0-1.42,0-2.79,0-4.21c-19.41,0-38.78,0-58.19,0C906.31,1514.94,906.31,1516.32,906.31,1517.74z
		 M930.54,1511.86c-0.53-6.93-1.72-13.73-1.27-20.69c-0.66,0.28-1.23,0.58-1.84,0.76c-2.66,0.81-5.34,1.61-8.01,2.38
		c-0.64,0.18-1.06,0.47-1.29,1.14c-1.29,3.63-2.67,7.22-3.91,10.86c-0.61,1.78-0.97,3.65-1.47,5.55c1.73,0,3.32,0,4.94,0
		c0.07-0.4,0.13-0.76,0.2-1.12c0.41-2.14,0.91-4.26,2.09-6.13c0.18-0.29,0.59-0.58,0.9-0.59c0.26,0,0.63,0.37,0.75,0.67
		c0.53,1.28,1.04,2.56,1.44,3.88c0.32,1.07,0.47,2.2,0.7,3.29C926.01,1511.86,928.22,1511.86,930.54,1511.86z M947.11,1511.87
		c0.28-2.59,0.97-4.98,2.1-7.23c0.14-0.28,0.5-0.59,0.79-0.62c0.25-0.03,0.65,0.26,0.79,0.51c0.46,0.87,0.94,1.75,1.23,2.68
		c0.47,1.52,0.8,3.09,1.19,4.62c1.57,0,3.16,0,4.78,0c-0.02-0.17-0.03-0.27-0.05-0.36c-1.16-5.35-2.98-10.48-5.01-15.55
		c-0.42-1.05-1.05-1.51-2.08-1.79c-3.09-0.84-6.24-1.53-9.15-2.92c-0.03-0.01-0.08,0.03-0.14,0.06c0.45,6.9-0.77,13.72-1.27,20.59
		C942.62,1511.87,944.84,1511.87,947.11,1511.87z M943.09,1477.48c-0.17-1.15-0.26-2.5-0.59-3.78c-0.23-0.9-0.77-1.73-1.22-2.57
		c-0.19-0.36-0.49-0.3-0.88-0.11c-1.51,0.72-3,1.56-4.6,2c-2.32,0.63-4.74,0.94-7.1,1.42c-0.42,0.08-1.03-0.15-1.16,0.61
		c-0.67,3.75,0.3,7.07,2.69,9.96c2.41,2.92,6.19,3.32,8.95,0.95C941.69,1483.8,942.82,1480.93,943.09,1477.48z M925.89,1475.36
		c0.06-0.39,0.12-0.77,0.18-1.16c0.14-0.97,0.36-1.12,1.33-1.25c2-0.27,4.02-0.52,6-0.92c2.25-0.46,4.48-1.1,6.36-2.5
		c0.68-0.51,1.28-0.54,1.88-0.1c0.55,0.4,1.12,0.87,1.44,1.45c0.48,0.85,0.8,1.8,1.07,2.74c0.24,0.84,0.31,1.73,0.46,2.6
		c0.23-0.3,0.38-0.61,0.46-0.94c0.9-3.97-0.3-7.33-3.13-10.12c-1.99-1.97-4.47-2.66-7.17-1.97c-3.49,0.89-6.23,2.98-8.23,5.94
		C925.24,1471.02,925.14,1473.17,925.89,1475.36z M951.89,1527.99c2.1,0,4.1,0,6.12,0c0-2.89,0-5.71,0-8.56c-2.06,0-4.08,0-6.12,0
		C951.89,1522.3,951.89,1525.13,951.89,1527.99z M944.06,1519.41c0,2.92,0,5.75,0,8.57c2.09,0,4.12,0,6.15,0c0-2.89,0-5.72,0-8.57
		C948.14,1519.41,946.12,1519.41,944.06,1519.41z M942.37,1519.44c-2.1,0-4.11,0-6.13,0c0,2.89,0,5.72,0,8.56c2.07,0,4.09,0,6.13,0
		C942.37,1525.12,942.37,1522.3,942.37,1519.44z M928.45,1519.42c0,2.91,0,5.74,0,8.58c2.07,0,4.08,0,6.13,0c0-2.88,0-5.7,0-8.58
		C932.51,1519.42,930.5,1519.42,928.45,1519.42z M926.75,1528.01c0-2.91,0-5.74,0-8.58c-2.08,0-4.12,0-6.16,0c0,2.89,0,5.72,0,8.58
		C922.65,1528.01,924.67,1528.01,926.75,1528.01z M918.92,1519.43c-2.09,0-4.1,0-6.14,0c0,2.88,0,5.71,0,8.56c2.07,0,4.1,0,6.14,0
		C918.92,1525.12,918.92,1522.31,918.92,1519.43z M959.68,1527.99c1.64,0,3.23,0,4.81,0c0-2.89,0-5.72,0-8.56c-1.63,0-3.2,0-4.81,0
		C959.68,1522.29,959.68,1525.1,959.68,1527.99z M911.13,1519.43c-1.65,0-3.22,0-4.83,0c0,2.88,0,5.71,0,8.56c1.63,0,3.22,0,4.83,0
		C911.13,1525.12,911.13,1522.31,911.13,1519.43z M934.8,1498.35c-0.04,0.19-0.09,0.33-0.1,0.48c-0.25,3.55-0.51,7.1-0.75,10.66
		c-0.01,0.16,0.02,0.36,0.12,0.48c0.42,0.51,0.87,0.99,1.34,1.53c0.48-0.54,0.91-1.01,1.31-1.51c0.11-0.13,0.14-0.36,0.13-0.54
		c-0.19-2.79-0.38-5.57-0.58-8.36c-0.07-0.9-0.15-1.81-0.22-2.73C935.6,1498.35,935.23,1498.35,934.8,1498.35z M938.65,1511.88
		c0.48-5.88,1.38-11.64,1.3-17.48c-0.45,0.6-0.81,1.22-1.18,1.83c-0.13,0.21-0.26,0.51-0.45,0.56c-0.8,0.22-0.73,0.83-0.69,1.42
		c0.22,3.13,0.46,6.25,0.68,9.38c0.1,1.47,0.52,3.02-0.95,4.14c-0.01,0.01,0.02,0.09,0.04,0.16
		C937.79,1511.88,938.18,1511.88,938.65,1511.88z M930.93,1494.38c-0.14,5.89,0.73,11.67,1.22,17.47c0.48,0,0.88,0,1.41,0
		c-0.36-0.41-0.66-0.7-0.88-1.05c-0.18-0.27-0.37-0.62-0.35-0.93c0.13-2.27,0.31-4.53,0.48-6.8c0.12-1.7,0.27-3.4,0.35-5.1
		c0.02-0.33-0.18-0.71-0.37-1c-0.19-0.29-0.55-0.47-0.75-0.76C931.64,1495.62,931.3,1494.99,930.93,1494.38z M935.4,1492.24
		c1.25-1.02,2.47-2.02,3.69-3.02c0.68-0.56,0.68-0.59,0.46-1.52c-2.73,1.72-5.51,1.82-8.43,0.3c0.05,0.37,0.08,0.77,0.31,0.96
		C932.72,1490.08,934.05,1491.14,935.4,1492.24z M950.25,1506.69c-0.12,0-0.24,0.01-0.36,0.01c-0.43,1.69-0.85,3.37-1.3,5.14
		c1.09,0,1.96,0,3,0C951.13,1510.06,950.69,1508.38,950.25,1506.69z M922.22,1511.87c-0.46-1.81-0.89-3.48-1.32-5.16
		c-0.13,0-0.25,0.01-0.38,0.01c-0.43,1.69-0.85,3.38-1.3,5.15C920.29,1511.87,921.12,1511.87,922.22,1511.87z M940.03,1490.95
		c-0.09-0.07-0.19-0.13-0.28-0.2c-1.06,0.86-2.12,1.73-3.21,2.63c0.42,0.49,0.8,0.92,1.24,1.43
		C938.56,1493.46,939.29,1492.2,940.03,1490.95z M933.04,1494.81c0.46-0.54,0.82-0.97,1.23-1.44c-1.1-0.9-2.16-1.76-3.22-2.63
		c-0.08,0.05-0.15,0.1-0.23,0.16C931.43,1492.23,932.27,1493.44,933.04,1494.81z M935.38,1494.58c-0.97,0.97-1.27,1.76-0.73,2.01
		c0.43,0.2,1.13,0.2,1.51-0.03C936.74,1496.22,936.44,1495.52,935.38,1494.58z"/>
</g>
<g>
	<circle class="st4" cx="319.63" cy="1283.59" r="48.89"/>
	<g>
		<path class="st2" d="M332.17,1252.77c0.37,0.35,0.4,0.79,0.4,1.26c-0.01,12.57-0.01,25.14-0.01,37.72c0,0.24,0,0.48,0,0.77
			c0.69-0.24,1.33-0.45,1.96-0.7c0.1-0.04,0.19-0.24,0.21-0.37c0.13-0.82,0.25-1.64,0.35-2.46c0.09-0.73,0.28-0.92,0.99-0.92
			c0.73,0,1.46,0.02,2.18-0.01c0.59-0.02,0.91,0.2,0.98,0.81c0.09,0.78,0.24,1.56,0.31,2.34c0.04,0.39,0.15,0.6,0.55,0.73
			c0.61,0.19,1.21,0.46,1.78,0.74c0.3,0.15,0.5,0.13,0.76-0.08c0.64-0.52,1.32-1,1.97-1.51c0.45-0.35,0.85-0.32,1.23,0.08
			c0.54,0.54,1.08,1.09,1.63,1.63c0.4,0.4,0.41,0.79,0.07,1.23c-0.5,0.63-0.97,1.29-1.48,1.92c-0.23,0.29-0.27,0.5-0.08,0.85
			c0.29,0.53,0.55,1.09,0.7,1.67c0.12,0.44,0.35,0.58,0.74,0.62c0.76,0.09,1.52,0.19,2.28,0.29c0.66,0.09,0.88,0.34,0.89,0.99
			c0.01,0.73,0.01,1.46,0,2.18c-0.01,0.66-0.2,0.9-0.88,1c-0.76,0.11-1.52,0.21-2.28,0.29c-0.41,0.04-0.62,0.19-0.75,0.62
			c-0.22,0.73-0.57,1.42-0.88,2.17c0.51,0.67,1.04,1.37,1.58,2.08c0.58,0.77,0.57,0.93-0.12,1.64c-0.44,0.44-0.88,0.89-1.33,1.33
			c-0.56,0.55-0.8,0.57-1.41,0.1c-0.63-0.47-1.27-0.93-1.88-1.44c-0.29-0.24-0.5-0.21-0.81-0.06c-0.58,0.28-1.17,0.53-1.78,0.74
			c-0.35,0.12-0.47,0.29-0.5,0.64c-0.09,0.84-0.23,1.68-0.34,2.52c-0.07,0.48-0.35,0.71-0.82,0.71c-0.81,0-1.62,0-2.43,0
			c-0.55,0-0.81-0.29-0.88-0.8c-0.11-0.84-0.25-1.68-0.34-2.52c-0.03-0.31-0.15-0.44-0.44-0.54c-0.62-0.22-1.25-0.46-1.84-0.76
			c-0.33-0.17-0.54-0.12-0.81,0.09c-0.65,0.52-1.32,1-1.97,1.51c-0.42,0.33-0.81,0.3-1.18-0.08c-0.48-0.49-0.97-0.97-1.46-1.46
			c-0.66-0.66-0.67-0.85-0.13-1.59c0.07-0.1,0.14-0.2,0.29-0.42c-0.31,0-0.53,0-0.75,0c-9.88,0-19.77,0-29.65,0
			c-1.08,0-1.27-0.18-1.27-1.26c0-17.69,0-35.37-0.01-53.06c0-0.49,0.04-0.92,0.48-1.22
			C308.07,1252.77,320.12,1252.77,332.17,1252.77z M331.07,1254.29c-11.37,0-22.67,0-34,0c0,17.51,0,34.98,0,52.49
			c2.83,0,5.63,0,8.5,0c0-0.27,0-0.51,0-0.75c0-3.98,0-7.96,0-11.94c0-0.94,0.21-1.14,1.13-1.14c4.91,0,9.82,0,14.73,0
			c0.91,0,1.14,0.23,1.14,1.15c0,4,0,8,0,12c0,0.22,0,0.43,0,0.71c1.92,0,3.77,0.01,5.62-0.01c0.32,0,0.39-0.19,0.24-0.5
			c-0.28-0.6-0.58-1.2-0.77-1.84c-0.13-0.46-0.39-0.59-0.81-0.64c-0.74-0.08-1.48-0.19-2.22-0.28c-0.59-0.07-0.9-0.37-0.88-1
			c0.03-0.73,0-1.45,0.01-2.18c0.01-0.71,0.22-0.92,0.92-1.01c0.74-0.09,1.48-0.19,2.22-0.28c0.38-0.05,0.63-0.16,0.75-0.61
			c0.16-0.6,0.44-1.17,0.72-1.72c0.15-0.3,0.14-0.49-0.08-0.75c-0.52-0.64-1.01-1.32-1.51-1.97c-0.34-0.44-0.33-0.84,0.08-1.23
			c0.54-0.52,1.06-1.06,1.59-1.58c0.48-0.48,0.76-0.49,1.32-0.08c0.41,0.3,0.82,0.61,1.28,0.96
			C331.07,1279.43,331.07,1266.88,331.07,1254.29z M328.26,1293.5c0.52,0.69,1.01,1.39,1.55,2.03c0.43,0.51,0.43,0.93,0.1,1.52
			c-0.43,0.78-0.75,1.65-1.02,2.5c-0.18,0.57-0.46,0.83-1.05,0.89c-0.86,0.08-1.71,0.23-2.58,0.35c0,0.47,0,0.89,0,1.33
			c0.9,0.13,1.77,0.28,2.65,0.37c0.55,0.05,0.79,0.33,0.96,0.83c0.32,0.91,0.68,1.81,1.1,2.67c0.24,0.48,0.26,0.84-0.08,1.27
			c-0.56,0.7-1.09,1.44-1.63,2.15c0.33,0.34,0.61,0.65,0.92,0.97c0.75-0.57,1.48-1.12,2.2-1.68c0.4-0.31,0.76-0.3,1.22-0.06
			c0.82,0.41,1.67,0.82,2.55,1.07c0.69,0.2,0.95,0.56,1,1.22c0.07,0.82,0.22,1.63,0.33,2.44c0.48,0,0.9,0,1.33,0
			c0.13-0.91,0.28-1.78,0.38-2.66c0.06-0.55,0.32-0.78,0.83-0.95c0.91-0.3,1.81-0.68,2.67-1.11c0.48-0.24,0.85-0.25,1.27,0.09
			c0.69,0.55,1.41,1.07,2.03,1.55c0.38-0.3,0.71-0.58,1.07-0.86c-0.59-0.78-1.13-1.51-1.69-2.23c-0.29-0.37-0.27-0.7-0.08-1.12
			c0.43-0.93,0.83-1.87,1.18-2.83c0.17-0.47,0.42-0.68,0.9-0.74c0.9-0.1,1.79-0.24,2.68-0.37c0-0.48,0-0.89,0-1.35
			c-0.91-0.12-1.79-0.24-2.67-0.35c-0.49-0.06-0.76-0.29-0.93-0.79c-0.3-0.91-0.66-1.82-1.1-2.67c-0.27-0.53-0.26-0.92,0.1-1.38
			c0.54-0.67,1.05-1.37,1.55-2.03c-0.33-0.36-0.62-0.69-0.91-1.01c-0.76,0.58-1.48,1.11-2.17,1.66c-0.4,0.32-0.75,0.31-1.22,0.08
			c-0.88-0.43-1.8-0.8-2.72-1.13c-0.47-0.17-0.74-0.39-0.8-0.92c-0.09-0.9-0.25-1.79-0.38-2.7c-0.45,0-0.87,0-1.34,0
			c-0.12,0.88-0.24,1.73-0.34,2.59c-0.06,0.57-0.31,0.87-0.9,1.04c-0.86,0.26-1.72,0.6-2.5,1.03c-0.59,0.32-1.02,0.33-1.53-0.1
			c-0.65-0.54-1.34-1.04-2.01-1.55C328.89,1292.88,328.59,1293.17,328.26,1293.5z M313.27,1306.75c0.03-0.12,0.06-0.18,0.06-0.23
			c0-3.88,0-7.75,0.01-11.63c0-0.41-0.2-0.45-0.52-0.45c-1.8,0.01-3.59,0-5.39,0.01c-0.11,0-0.23,0.03-0.34,0.05
			c0,4.11,0,8.17,0,12.26C309.17,1306.75,311.2,1306.75,313.27,1306.75z M314.85,1294.48c0,4.1,0,8.17,0,12.26c2.08,0,4.13,0,6.22,0
			c0-4.1,0-8.17,0-12.26C318.97,1294.48,316.92,1294.48,314.85,1294.48z"/>
		<path class="st2" d="M320.75,1266.6c-1.23,0-2.46,0.01-3.7,0c-0.89-0.01-1.41-0.48-1.42-1.38c-0.03-2.06-0.03-4.12,0-6.18
			c0.01-0.87,0.55-1.38,1.43-1.39c2.46-0.02,4.93-0.02,7.39,0c0.9,0.01,1.45,0.52,1.47,1.43c0.03,2.04,0.03,4.08,0,6.12
			c-0.01,0.92-0.55,1.39-1.47,1.4C323.22,1266.61,321.99,1266.61,320.75,1266.6z M317.16,1259.19c0,2,0,3.96,0,5.92
			c2.44,0,4.84,0,7.24,0c0-1.99,0-3.94,0-5.92C321.96,1259.19,319.57,1259.19,317.16,1259.19z"/>
		<path class="st2" d="M320.79,1289.54c-1.21,0-2.42,0.01-3.64,0c-1.01-0.01-1.52-0.47-1.53-1.46c-0.02-2-0.02-4,0-6
			c0.01-0.98,0.53-1.49,1.52-1.49c2.42-0.01,4.85-0.02,7.27,0c0.97,0.01,1.5,0.54,1.51,1.51c0.02,1.98,0.02,3.96,0,5.94
			c-0.01,1.02-0.52,1.49-1.56,1.5C323.17,1289.54,321.98,1289.54,320.79,1289.54z M324.39,1288.06c0-2.01,0-3.96,0-5.94
			c-2.43,0-4.82,0-7.24,0c0,2,0,3.96,0,5.94C319.58,1288.06,321.96,1288.06,324.39,1288.06z"/>
		<path class="st2" d="M320.8,1269.14c1.19,0,2.38,0,3.58,0c1.01,0,1.53,0.47,1.55,1.45c0.03,2.02,0.03,4.04,0,6.06
			c-0.01,0.93-0.57,1.44-1.51,1.44c-2.42,0.01-4.85,0.01-7.27,0c-0.97-0.01-1.5-0.53-1.51-1.5c-0.02-2-0.02-4,0-6
			c0.01-0.97,0.51-1.44,1.48-1.45C318.34,1269.14,319.57,1269.14,320.8,1269.14z M317.15,1270.62c0,2.01,0,3.96,0,5.94
			c2.43,0,4.82,0,7.24,0c0-2,0-3.96,0-5.94C321.96,1270.62,319.58,1270.62,317.15,1270.62z"/>
		<path class="st2" d="M307.32,1266.61c-1.19,0-2.38,0.01-3.58,0c-1.04-0.01-1.53-0.5-1.53-1.52c0-1.98-0.01-3.96,0-5.94
			c0-0.93,0.52-1.49,1.45-1.49c2.46-0.02,4.93-0.02,7.39,0c0.92,0.01,1.45,0.57,1.45,1.5c0.01,1.98,0.01,3.96,0,5.94
			c0,0.98-0.51,1.5-1.49,1.51C309.79,1266.61,308.56,1266.61,307.32,1266.61z M311,1265.12c0-1.99,0-3.96,0-5.92
			c-2.46,0-4.87,0-7.29,0c0,2,0,3.95,0,5.92C306.15,1265.12,308.56,1265.12,311,1265.12z"/>
		<path class="st2" d="M307.38,1278.1c-1.19,0-2.38,0.01-3.58,0c-1.08-0.01-1.59-0.53-1.59-1.6c0-1.94,0-3.88,0-5.82
			c0-1.04,0.48-1.53,1.51-1.53c2.42-0.01,4.85-0.01,7.27,0c0.99,0,1.5,0.51,1.51,1.48c0.01,1.98,0.01,3.96,0,5.94
			c0,0.98-0.55,1.52-1.55,1.53C309.77,1278.11,308.57,1278.1,307.38,1278.1z M303.69,1276.55c2.47,0,4.88,0,7.32,0
			c0-1.99,0-3.94,0-5.91c-2.46,0-4.89,0-7.32,0C303.69,1272.63,303.69,1274.56,303.69,1276.55z"/>
		<path class="st2" d="M307.32,1289.54c-1.19,0-2.38,0.01-3.58,0c-1.04-0.01-1.53-0.49-1.53-1.51c0-1.98-0.01-3.96,0-5.94
			c0-0.93,0.52-1.49,1.45-1.49c2.46-0.02,4.93-0.02,7.39,0c0.93,0.01,1.44,0.58,1.45,1.51c0.01,1.98,0.01,3.96,0,5.94
			c0,0.98-0.51,1.49-1.49,1.5C309.79,1289.55,308.55,1289.54,307.32,1289.54z M311.01,1288.06c0-2.01,0-3.96,0-5.94
			c-2.45,0-4.86,0-7.29,0c0,2,0,3.96,0,5.94C306.16,1288.06,308.56,1288.06,311.01,1288.06z"/>
		<path class="st2" d="M337.17,1307.89c-3.53,0-6.44-2.9-6.44-6.43c0-3.52,2.92-6.44,6.44-6.45c3.53-0.01,6.42,2.89,6.42,6.44
			C343.59,1305.01,340.73,1307.89,337.17,1307.89z M337.2,1296.52c-2.76-0.01-4.99,2.2-4.99,4.94c0,2.72,2.21,4.93,4.93,4.94
			c2.74,0.01,4.96-2.17,4.98-4.88C342.14,1298.74,339.96,1296.54,337.2,1296.52z"/>
	</g>
</g>
<g>
	<circle class="st4" cx="934.42" cy="1053.03" r="48.89"/>
	<g>
		<path class="st2" d="M940.07,1085.15c0,0.94,0.01,1.78,0,2.62c-0.02,1.48-1.1,2.58-2.57,2.59c-1.76,0.02-3.53,0.02-5.3,0
			c-1.45-0.02-2.53-1.14-2.55-2.61c-0.01-0.84,0-1.67,0-2.6c-0.9,0-1.73,0.01-2.56,0c-1.56-0.02-2.65-1.1-2.65-2.68
			c-0.01-4.02-0.01-8.04,0.01-12.06c0-0.63-0.16-0.99-0.74-1.34c-7.72-4.78-11.48-11.77-10.94-20.81
			c0.61-10.3,8.68-18.79,18.89-20.26c11.76-1.69,22.81,6.19,25.01,17.85c1.73,9.2-2.55,18.56-10.66,23.23
			c-0.54,0.31-0.74,0.64-0.73,1.27c0.03,3.99,0.02,7.98,0.01,11.97c0,1.79-1.04,2.82-2.83,2.83
			C941.7,1085.15,940.94,1085.15,940.07,1085.15z M933.55,1072.08c0-1.93,0.01-3.8-0.02-5.66c0-0.22-0.22-0.48-0.39-0.66
			c-1.01-1.03-2.04-2.03-3.04-3.06c-0.75-0.78-0.55-1.83,0.38-2.2c0.61-0.25,1.11-0.03,1.54,0.41c0.92,0.94,1.85,1.89,2.84,2.91
			c0.97-0.99,1.83-1.89,2.71-2.78c0.76-0.76,1.54-0.84,2.12-0.23c0.56,0.58,0.48,1.34-0.24,2.07c-0.95,0.96-1.92,1.92-2.87,2.88
			c-0.16,0.17-0.4,0.38-0.4,0.57c-0.03,1.92-0.02,3.83-0.02,5.74c2.23,0,4.36,0,6.52,0c0-0.85,0.08-1.64-0.02-2.42
			c-0.15-1.3,0.39-1.99,1.54-2.59c7.76-4.1,11.8-13.33,9.61-21.76c-2.73-10.48-12.67-16.63-23.27-14.39
			c-10.24,2.16-17.08,12.79-14.81,23.01c1.35,6.06,4.77,10.54,10.26,13.43c0.74,0.39,1.1,0.88,1.06,1.73
			c-0.05,0.99-0.01,1.99-0.01,3.03C929.22,1072.08,931.33,1072.08,933.55,1072.08z M942.65,1074.79c-5.25,0-10.41,0-15.58,0
			c0,0.87,0,1.67,0,2.5c5.21,0,10.38,0,15.58,0C942.65,1076.44,942.65,1075.63,942.65,1074.79z M927.07,1082.49
			c5.23,0,10.4,0,15.55,0c0-0.88,0-1.71,0-2.51c-5.21,0-10.36,0-15.55,0C927.07,1080.83,927.07,1081.63,927.07,1082.49z
			 M937.43,1085.21c-1.77,0-3.46,0-5.15,0c0,0.87,0,1.67,0,2.5c1.73,0,3.42,0,5.15,0C937.43,1086.87,937.43,1086.06,937.43,1085.21z
			"/>
		<path class="st2" d="M912.61,1026.34c0.47,0.27,0.86,0.41,1.14,0.67c1.19,1.14,2.35,2.32,3.51,3.5c0.62,0.63,0.65,1.4,0.12,1.95
			c-0.53,0.55-1.32,0.55-1.95-0.06c-1.22-1.19-2.42-2.4-3.62-3.62c-0.41-0.42-0.61-0.96-0.26-1.47
			C911.8,1026.93,912.22,1026.68,912.61,1026.34z"/>
		<path class="st2" d="M958.5,1027.75c-0.3,0.48-0.45,0.87-0.72,1.14c-1.13,1.17-2.28,2.31-3.44,3.45c-0.66,0.65-1.46,0.67-2,0.1
			c-0.52-0.55-0.48-1.31,0.14-1.94c1.18-1.2,2.37-2.38,3.56-3.56c0.42-0.41,0.96-0.63,1.47-0.29
			C957.88,1026.91,958.14,1027.35,958.5,1027.75z"/>
		<path class="st2" d="M912.56,1073.54c-0.33-0.29-0.83-0.53-0.98-0.91c-0.15-0.38-0.11-1.05,0.15-1.32
			c1.24-1.36,2.55-2.65,3.89-3.91c0.52-0.49,1.16-0.4,1.69,0.08c0.52,0.48,0.61,1.22,0.11,1.75c-1.27,1.33-2.58,2.62-3.9,3.9
			C913.31,1073.31,912.98,1073.36,912.56,1073.54z"/>
		<path class="st2" d="M958.4,1072.15c-0.26,0.34-0.47,0.86-0.84,1.02c-0.37,0.17-1.06,0.16-1.33-0.08
			c-1.38-1.25-2.7-2.58-3.97-3.94c-0.49-0.52-0.36-1.18,0.15-1.68c0.52-0.5,1.16-0.58,1.68-0.09c1.34,1.26,2.62,2.58,3.9,3.9
			C958.17,1071.46,958.22,1071.76,958.4,1072.15z"/>
		<path class="st2" d="M933.56,1021.29c0-0.84-0.01-1.68,0-2.51c0.02-0.88,0.54-1.41,1.34-1.39c0.75,0.02,1.25,0.55,1.26,1.39
			c0.01,1.68,0.01,3.35,0,5.03c-0.01,0.87-0.55,1.41-1.34,1.39c-0.75-0.02-1.24-0.55-1.26-1.39
			C933.54,1022.96,933.56,1022.12,933.56,1021.29z"/>
		<path class="st2" d="M906.13,1051.26c-0.84,0-1.68,0.01-2.51,0c-0.82-0.02-1.35-0.54-1.35-1.3c0-0.76,0.52-1.28,1.35-1.29
			c1.7-0.02,3.41-0.02,5.11,0c0.82,0.01,1.35,0.54,1.35,1.3c0,0.76-0.53,1.27-1.35,1.29C907.86,1051.28,907,1051.26,906.13,1051.26z
			"/>
		<path class="st2" d="M963.53,1051.26c-0.84,0-1.68,0.01-2.51,0c-0.84-0.02-1.37-0.51-1.38-1.26c-0.02-0.79,0.52-1.32,1.4-1.33
			c1.68-0.01,3.35-0.01,5.03,0c0.84,0.01,1.37,0.51,1.38,1.26c0.02,0.8-0.51,1.32-1.4,1.33
			C965.21,1051.27,964.37,1051.26,963.53,1051.26z"/>
	</g>
</g>
<g>
	<circle class="st4" cx="852.12" cy="605.46" r="48.89"/>
	<g>
		<path class="st2" d="M858.1,630.53c0.91,0,1.74,0,2.65,0c0-0.29,0-0.55,0-0.82c0-11.53,0-23.06,0-34.59c0-1.52,0.4-1.92,1.93-1.92
			c4.09,0,8.17,0,12.26,0c1.45,0,1.85,0.41,1.85,1.86c0,11.53,0,23.06,0,34.59c0,0.27,0,0.54,0,0.9c0.44,0,0.82-0.01,1.21,0
			c0.87,0.03,1.49,0.62,1.47,1.38c-0.02,0.75-0.62,1.29-1.46,1.33c-0.12,0.01-0.25,0-0.38,0c-18.37,0-36.74,0-55.11,0
			c-0.17,0-0.33,0.01-0.5-0.01c-0.75-0.08-1.31-0.66-1.31-1.35c0-0.7,0.55-1.29,1.31-1.34c0.43-0.03,0.87-0.01,1.37-0.01
			c0-0.34,0-0.6,0-0.87c0-6.19,0-12.38,0-18.58c0-1.5,0.4-1.9,1.88-1.9c4.09,0,8.17,0,12.26,0c1.49,0,1.91,0.41,1.91,1.88
			c0,6.21,0,12.43,0,18.64c0,0.25,0,0.49,0,0.77c0.9,0,1.74,0,2.65,0c0-0.26,0-0.51,0-0.75c0-8.94,0-17.89,0-26.83
			c0-1.27,0.44-1.72,1.73-1.72c4.17,0,8.34,0,12.51,0c1.34,0,1.77,0.43,1.77,1.75c0,8.92,0,17.85,0,26.77
			C858.1,629.98,858.1,630.23,858.1,630.53z M863.5,595.91c0,11.57,0,23.08,0,34.61c3.55,0,7.06,0,10.58,0c0-11.56,0-23.07,0-34.61
			C870.55,595.91,867.05,595.91,863.5,595.91z M855.37,630.53c0-8.91,0-17.76,0-26.61c-3.55,0-7.04,0-10.57,0
			c0,8.88,0,17.73,0,26.61C848.34,630.53,851.83,630.53,855.37,630.53z M826.12,611.93c0,6.18,0,12.37,0,18.59
			c3.52,0,7.03,0,10.57,0c0-6.21,0-12.39,0-18.59C833.16,611.93,829.67,611.93,826.12,611.93z"/>
		<path class="st2" d="M874.54,577.23c-2.4,0-4.63,0-6.86,0c-0.9,0-1.49-0.47-1.56-1.21c-0.08-0.87,0.53-1.5,1.51-1.5
			c2.5-0.01,5,0,7.51,0c0.94,0,1.88-0.01,2.81,0c1.11,0.02,1.69,0.75,1.43,1.82c-0.85,3.45-1.71,6.9-2.57,10.35
			c-0.23,0.92-0.92,1.37-1.69,1.17c-0.77-0.2-1.13-0.93-0.91-1.84c0.5-2.01,1-4.03,1.54-6.22c-0.27,0.22-0.42,0.33-0.56,0.45
			c-12.55,10.65-26.83,17.93-42.85,21.74c-3.23,0.77-6.53,1.27-9.8,1.87c-0.98,0.18-1.7-0.3-1.82-1.15c-0.1-0.75,0.46-1.37,1.4-1.52
			c0.33-0.05,0.66-0.09,0.99-0.14c11.3-1.67,22-5.16,32.1-10.49c6.79-3.58,13.09-7.89,18.89-12.92
			C874.2,577.54,874.3,577.44,874.54,577.23z"/>
	</g>
</g>
<g>
	<circle class="st4" cx="254.09" cy="817.88" r="48.89"/>
	<g>
		<path class="st2" d="M221.14,822c6.77,0,13.54,0,20.4,0c0,0.29,0,0.53,0,0.77c0,4.6,0.01,9.2-0.01,13.8c0,0.47,0.11,0.79,0.5,1.09
			c3.53,2.69,7.47,4.26,11.9,4.64c4.11,0.35,8.01-0.39,11.73-2.18c0.14-0.07,0.29-0.12,0.48-0.19c0.62,1.2,1.23,2.38,1.86,3.6
			c-1.77,0.95-3.58,1.64-5.47,2.11c-7.22,1.78-14.04,0.8-20.46-2.97c-0.26-0.15-0.58-0.25-0.88-0.25
			c-6.68-0.01-13.37-0.01-20.05-0.01C221.14,835.6,221.14,828.8,221.14,822z M237.42,838.29c0-4.1,0-8.14,0-12.16
			c-4.09,0-8.13,0-12.16,0c0,4.08,0,8.11,0,12.16C229.31,838.29,233.34,838.29,237.42,838.29z"/>
		<path class="st2" d="M242.09,785.3c9.3,0,18.47,0,27.75,0c-4.63,7.41-9.22,14.75-13.87,22.19c-0.17-0.26-0.3-0.46-0.42-0.66
			c-1.66-2.65-3.33-5.29-4.96-7.95c-0.31-0.51-0.59-0.6-1.13-0.41c-8.43,2.89-13.65,8.65-15.55,17.37
			c-0.02,0.09-0.04,0.17-0.09,0.36c-0.67-0.11-1.33-0.21-1.99-0.32c-0.64-0.1-1.29-0.21-2.1-0.34c2.18-10.38,8.24-17.29,18.15-20.94
			C245.97,791.52,244.06,788.46,242.09,785.3z M249.47,789.38c2.2,3.51,4.32,6.91,6.49,10.38c2.2-3.52,4.32-6.92,6.48-10.38
			C258.07,789.38,253.84,789.38,249.47,789.38z"/>
		<path class="st2" d="M278.47,822.2c0.5-9.26-3.12-16.39-10.84-21.56c0.67-1.12,1.35-2.25,2.12-3.55c1.3,0.99,2.62,1.87,3.8,2.9
			c5.06,4.46,8.03,10.08,8.88,16.77c0.2,1.56,0.14,3.16,0.16,4.75c0,0.47,0.04,0.69,0.58,0.83c4.73,1.24,7.76,5.45,7.61,10.5
			c-0.13,4.41-3.64,8.43-8.17,9.38c-5.25,1.1-10.65-2.3-11.93-7.52c-1.31-5.33,1.81-10.79,7.01-12.29
			C277.89,822.35,278.11,822.29,278.47,822.2z M286.7,832.19c-0.01-3.33-2.77-6.09-6.1-6.11c-3.34-0.02-6.15,2.79-6.14,6.13
			c0.01,3.32,2.77,6.09,6.1,6.11C283.9,838.34,286.71,835.53,286.7,832.19z"/>
	</g>
</g>
<g>
	<circle class="st4" cx="239.2" cy="432.26" r="48.89"/>
	<path class="st2" d="M228.01,437.26c1.07-1.35,2.18-2.8,3.33-4.22c4.36-5.37,9-10.47,14.31-14.93c3.92-3.29,8.12-6.13,12.96-7.91
		c5.06-1.87,10.39,0.98,11.49,6.17c0.48,2.26-0.15,4.3-1.75,5.91c-1.11,1.11-2.37,2.11-3.69,2.97c-3.1,2.02-6.3,3.9-9.08,6.39
		c-3.69,3.3-7.02,6.94-10.16,10.76c-3.47,4.23-6.69,8.65-9.71,13.23c-3.68,5.59-11.35,5.44-14.86-0.25
		c-0.56-0.91-1.16-1.8-1.76-2.69c-1.58-2.32-3.6-4.1-6.18-5.28c-2.08-0.96-3.54-2.52-4.02-4.87c-0.93-4.61,2.08-9.06,6.72-9.87
		c2.87-0.5,5.5,0.29,7.96,1.66C225.11,435.18,226.51,436.26,228.01,437.26z M228.21,455.38c1.8-0.01,3.03-0.77,3.92-2.15
		c3.36-5.15,7.01-10.09,10.97-14.79c3.56-4.23,7.26-8.34,11.68-11.7c2.48-1.89,5.19-3.48,7.76-5.25c0.95-0.65,1.85-1.4,2.69-2.19
		c0.77-0.73,0.85-1.67,0.49-2.66c-0.78-2.15-3.23-3.24-5.52-2.42c-3.7,1.32-6.97,3.4-10.05,5.8c-5.23,4.07-9.77,8.85-13.97,13.94
		c-2.11,2.55-4.09,5.19-6.12,7.8c-1.04,1.34-2.39,1.44-3.59,0.24c-0.22-0.22-0.44-0.45-0.66-0.67c-1.71-1.63-3.54-3.09-5.79-3.9
		c-1.22-0.44-2.47-0.78-3.8-0.49c-1.59,0.35-2.93,1.73-3.15,3.27c-0.24,1.74,0.21,2.56,2.09,3.52c1.96,1,3.9,2.06,5.28,3.81
		c1.45,1.83,2.81,3.74,4.13,5.68C225.51,454.59,226.71,455.35,228.21,455.38z"/>
</g>
<g>
	<text transform="matrix(1 0 0 1 549.5986 203.1919)" class="st5 st6 st7">2016</text>
	<text transform="matrix(1 0 0 1 549.5986 228.3188)" class="st8 st6 st9">Humble Beginnings</text>
	<rect x="549.6" y="240.02" class="st10" width="191.7" height="66.98"/>
	<text transform="matrix(1 0 0 1 549.5985 251.8892)"><tspan x="0" y="0" class="st5 st11 st12">Established with a vision to </tspan><tspan x="0" y="16.78" class="st5 st11 st12">deliver innovative and </tspan><tspan x="0" y="33.56" class="st5 st11 st12">reliable structural </tspan><tspan x="0" y="50.35" class="st5 st11 st12">engineering solutions.</tspan></text>
</g>
<g>
	<text transform="matrix(1 0 0 1 326.4387 393.1611)" class="st5 st6 st7">2018</text>
	<text transform="matrix(1 0 0 1 326.4387 418.2881)" class="st8 st6 st9">Early Success</text>
	<rect x="326.44" y="429.99" class="st10" width="190.62" height="66.98"/>
	<text transform="matrix(1 0 0 1 326.4385 441.8584)"><tspan x="0" y="0" class="st5 st11 st12">Earned recognition for </tspan><tspan x="0" y="16.78" class="st5 st11 st12">excellence in high-rise and </tspan><tspan x="0" y="33.56" class="st5 st11 st12">industrial projects, building </tspan><tspan x="0" y="50.35" class="st5 st11 st12">a strong client base.</tspan></text>
</g>
<g>
	<text transform="matrix(1 0 0 1 590.093 566.3623)" class="st5 st6 st7">2019</text>
	<text transform="matrix(1 0 0 1 590.093 591.4893)" class="st8 st6 st9">Growth Phase</text>
	<rect x="590.09" y="603.19" class="st10" width="202.96" height="66.98"/>
	<text transform="matrix(1 0 0 1 590.0931 615.0596)"><tspan x="0" y="0" class="st5 st11 st12">Expanded expertise, </tspan><tspan x="0" y="16.78" class="st5 st11 st12">strengthened relationships </tspan><tspan x="0" y="33.56" class="st5 st11 st12">with repeat clients, and grew </tspan><tspan x="0" y="50.35" class="st5 st11 st12">the engineering team.</tspan></text>
</g>
<g>
	<text transform="matrix(1 0 0 1 325.4387 778.7803)" class="st5 st6 st7">2020</text>
	<text transform="matrix(1 0 0 1 325.4387 803.9072)" class="st8 st6 st9">Resilience and Adaptability</text>
	<rect x="325.44" y="815.6" class="st10" width="239.81" height="66.98"/>
	<text transform="matrix(1 0 0 1 325.4387 827.4775)"><tspan x="0" y="0" class="st5 st11 st12">Seamlessly transitioned to remote </tspan><tspan x="0" y="16.78" class="st5 st11 st12">work during the pandemic, </tspan><tspan x="0" y="33.56" class="st5 st11 st12">integrating advanced design </tspan><tspan x="0" y="50.35" class="st5 st11 st12">technologies.</tspan></text>
</g>
<g>
	<text transform="matrix(1 0 0 1 655.5425 1002.7139)" class="st5 st6 st7">2022</text>
	<text transform="matrix(1 0 0 1 655.5425 1027.8408)" class="st8 st6 st9">Innovation Drive</text>
	<rect x="655.54" y="1039.54" class="st10" width="199.52" height="89.42"/>
	<text transform="matrix(1 0 0 1 655.5424 1051.4111)"><tspan x="0" y="0" class="st5 st11 st12">Initiated R&amp;D for sustainable </tspan><tspan x="0" y="16.78" class="st5 st11 st12">engineering and began </tspan><tspan x="0" y="33.56" class="st5 st11 st12">leveraging AI and advanced </tspan><tspan x="0" y="50.35" class="st5 st11 st12">design automation tools for </tspan><tspan x="0" y="67.13" class="st5 st11 st12">accelerated project delivery.</tspan></text>
</g>
<g>
	<text transform="matrix(1 0 0 1 398.2026 1244.9819)" class="st5 st6 st7">2024</text>
	<text transform="matrix(1 0 0 1 398.2026 1270.1089)" class="st8 st6 st9">Incorporation &amp; Expansion</text>
	<rect x="398.2" y="1281.81" class="st10" width="197.85" height="65.99"/>
	<text transform="matrix(1 0 0 1 398.2026 1293.6802)"><tspan x="0" y="0" class="st5 st11 st12">Incorporated as &quot;Highbrou </tspan><tspan x="0" y="16.78" class="st5 st11 st12">Engineering Private Limited&quot; </tspan><tspan x="0" y="33.56" class="st5 st11 st12">and expanded services to </tspan><tspan x="0" y="50.35" class="st5 st11 st12">international markets.</tspan></text>
</g>
<g>
	<text transform="matrix(1 0 0 1 634.8234 1451.3184)" class="st5 st6 st7">2025</text>
	<text transform="matrix(1 0 0 1 634.8234 1476.4453)" class="st8 st6 st9">Industry Leadership</text>
	<rect x="634.82" y="1488.14" class="st10" width="243.23" height="87.78"/>
	<text transform="matrix(1 0 0 1 634.8231 1500.0166)"><tspan x="0" y="0" class="st5 st11 st12">Established as a trusted partner </tspan><tspan x="0" y="16.78" class="st5 st11 st12">for architects, builders, and EPC </tspan><tspan x="0" y="33.56" class="st5 st11 st12">contractors, delivering world-class </tspan><tspan x="0" y="50.35" class="st5 st11 st12">structural engineering solutions </tspan><tspan x="0" y="67.13" class="st5 st11 st12">globally.</tspan></text>
</g>
</svg>
