<svg width="30" height="30" viewBox="0 0 30 30" fill="none" xmlns="http://www.w3.org/2000/svg">
<path d="M10 7.5C10 7.83152 9.8683 8.14946 9.63388 8.38388C9.39946 8.6183 9.08152 8.75 8.75 8.75C8.41848 8.75 8.10054 8.6183 7.86612 8.38388C7.6317 8.14946 7.5 7.83152 7.5 7.5C7.5 7.16848 7.6317 6.85054 7.86612 6.61612C8.10054 6.3817 8.41848 6.25 8.75 6.25C9.08152 6.25 9.39946 6.3817 9.63388 6.61612C9.8683 6.85054 10 7.16848 10 7.5ZM8.75 12.5C9.08152 12.5 9.39946 12.3683 9.63388 12.1339C9.8683 11.8995 10 11.5815 10 11.25C10 10.9185 9.8683 10.6005 9.63388 10.3661C9.39946 10.1317 9.08152 10 8.75 10C8.41848 10 8.10054 10.1317 7.86612 10.3661C7.6317 10.6005 7.5 10.9185 7.5 11.25C7.5 11.5815 7.6317 11.8995 7.86612 12.1339C8.10054 12.3683 8.41848 12.5 8.75 12.5ZM10 15C10 15.3315 9.8683 15.6495 9.63388 15.8839C9.39946 16.1183 9.08152 16.25 8.75 16.25C8.41848 16.25 8.10054 16.1183 7.86612 15.8839C7.6317 15.6495 7.5 15.3315 7.5 15C7.5 14.6685 7.6317 14.3505 7.86612 14.1161C8.10054 13.8817 8.41848 13.75 8.75 13.75C9.08152 13.75 9.39946 13.8817 9.63388 14.1161C9.8683 14.3505 10 14.6685 10 15ZM10 18.75C10 19.0815 9.8683 19.3995 9.63388 19.6339C9.39946 19.8683 9.08152 20 8.75 20C8.41848 20 8.10054 19.8683 7.86612 19.6339C7.6317 19.3995 7.5 19.0815 7.5 18.75C7.5 18.4185 7.6317 18.1005 7.86612 17.8661C8.10054 17.6317 8.41848 17.5 8.75 17.5C9.08152 17.5 9.39946 17.6317 9.63388 17.8661C9.8683 18.1005 10 18.4185 10 18.75ZM8.75 23.75C9.08152 23.75 9.39946 23.6183 9.63388 23.3839C9.8683 23.1495 10 22.8315 10 22.5C10 22.1685 9.8683 21.8505 9.63388 21.6161C9.39946 21.3817 9.08152 21.25 8.75 21.25C8.41848 21.25 8.10054 21.3817 7.86612 21.6161C7.6317 21.8505 7.5 22.1685 7.5 22.5C7.5 22.8315 7.6317 23.1495 7.86612 23.3839C8.10054 23.6183 8.41848 23.75 8.75 23.75ZM17.5 20C17.8315 20 18.1495 19.8683 18.3839 19.6339C18.6183 19.3995 18.75 19.0815 18.75 18.75C18.75 18.4185 18.6183 18.1005 18.3839 17.8661C18.1495 17.6317 17.8315 17.5 17.5 17.5C17.1685 17.5 16.8505 17.6317 16.6161 17.8661C16.3817 18.1005 16.25 18.4185 16.25 18.75C16.25 19.0815 16.3817 19.3995 16.6161 19.6339C16.8505 19.8683 17.1685 20 17.5 20ZM21.25 20C21.5815 20 21.8995 19.8683 22.1339 19.6339C22.3683 19.3995 22.5 19.0815 22.5 18.75C22.5 18.4185 22.3683 18.1005 22.1339 17.8661C21.8995 17.6317 21.5815 17.5 21.25 17.5C20.9185 17.5 20.6005 17.6317 20.3661 17.8661C20.1317 18.1005 20 18.4185 20 18.75C20 19.0815 20.1317 19.3995 20.3661 19.6339C20.6005 19.8683 20.9185 20 21.25 20ZM21.25 16.25C21.5815 16.25 21.8995 16.1183 22.1339 15.8839C22.3683 15.6495 22.5 15.3315 22.5 15C22.5 14.6685 22.3683 14.3505 22.1339 14.1161C21.8995 13.8817 21.5815 13.75 21.25 13.75C20.9185 13.75 20.6005 13.8817 20.3661 14.1161C20.1317 14.3505 20 14.6685 20 15C20 15.3315 20.1317 15.6495 20.3661 15.8839C20.6005 16.1183 20.9185 16.25 21.25 16.25ZM18.75 15C18.75 15.3315 18.6183 15.6495 18.3839 15.8839C18.1495 16.1183 17.8315 16.25 17.5 16.25C17.1685 16.25 16.8505 16.1183 16.6161 15.8839C16.3817 15.6495 16.25 15.3315 16.25 15C16.25 14.6685 16.3817 14.3505 16.6161 14.1161C16.8505 13.8817 17.1685 13.75 17.5 13.75C17.8315 13.75 18.1495 13.8817 18.3839 14.1161C18.6183 14.3505 18.75 14.6685 18.75 15ZM21.25 12.5C21.5815 12.5 21.8995 12.3683 22.1339 12.1339C22.3683 11.8995 22.5 11.5815 22.5 11.25C22.5 10.9185 22.3683 10.6005 22.1339 10.3661C21.8995 10.1317 21.5815 10 21.25 10C20.9185 10 20.6005 10.1317 20.3661 10.3661C20.1317 10.6005 20 10.9185 20 11.25C20 11.5815 20.1317 11.8995 20.3661 12.1339C20.6005 12.3683 20.9185 12.5 21.25 12.5ZM18.75 11.25C18.75 11.5815 18.6183 11.8995 18.3839 12.1339C18.1495 12.3683 17.8315 12.5 17.5 12.5C17.1685 12.5 16.8505 12.3683 16.6161 12.1339C16.3817 11.8995 16.25 11.5815 16.25 11.25C16.25 10.9185 16.3817 10.6005 16.6161 10.3661C16.8505 10.1317 17.1685 10 17.5 10C17.8315 10 18.1495 10.1317 18.3839 10.3661C18.6183 10.6005 18.75 10.9185 18.75 11.25ZM17.5 6.25V5.3125C17.5 4.56658 17.2037 3.85121 16.6762 3.32376C16.1488 2.79632 15.4334 2.5 14.6875 2.5H6.5625C5.81658 2.5 5.10121 2.79632 4.57376 3.32376C4.04632 3.85121 3.75 4.56658 3.75 5.3125V25.9375C3.75 26.455 4.17 26.875 4.6875 26.875H25.3125C25.5611 26.875 25.7996 26.7762 25.9754 26.6004C26.1512 26.4246 26.25 26.1861 26.25 25.9375V9.0625C26.25 8.31658 25.9537 7.60121 25.4262 7.07376C24.8988 6.54632 24.1834 6.25 23.4375 6.25H17.5ZM5.625 5.3125C5.625 5.06386 5.72377 4.8254 5.89959 4.64959C6.0754 4.47377 6.31386 4.375 6.5625 4.375H14.6875C14.9361 4.375 15.1746 4.47377 15.3504 4.64959C15.5262 4.8254 15.625 5.06386 15.625 5.3125V6.25H15.3125C14.5666 6.25 13.8512 6.54632 13.3238 7.07376C12.7963 7.60121 12.5 8.31658 12.5 9.0625V25H5.625V5.3125ZM18.125 25V23.125H20.625V25H18.125ZM22.5 22.1875C22.5 21.9389 22.4012 21.7004 22.2254 21.5246C22.0496 21.3488 21.8111 21.25 21.5625 21.25H17.1875C16.9389 21.25 16.7004 21.3488 16.5246 21.5246C16.3488 21.7004 16.25 21.9389 16.25 22.1875V25H14.375V9.0625C14.375 8.81386 14.4738 8.5754 14.6496 8.39959C14.8254 8.22377 15.0639 8.125 15.3125 8.125H23.4375C23.6861 8.125 23.9246 8.22377 24.1004 8.39959C24.2762 8.5754 24.375 8.81386 24.375 9.0625V25H22.5V22.1875Z" fill="black"/>
</svg>
