<svg width="26" height="28" viewBox="0 0 26 28" fill="none" xmlns="http://www.w3.org/2000/svg">
<path d="M9.25 6.5L9.75 9.2675C9.8325 9.81 9.7825 10.3613 9.60125 10.8875L4.25 26.5M16.75 6.5L16.25 9.2675C16.1675 9.81 16.2175 10.3613 16.3987 10.8875L21.75 26.5" stroke="black" stroke-width="1.875" stroke-linecap="round" stroke-linejoin="round"/>
<path d="M1.75 12.75L2.155 11.4C2.26375 11.0375 2.3175 10.8562 2.44125 10.7037C2.56375 10.5525 2.74625 10.4413 3.11 10.2213L8.5925 6.9C8.9175 6.7025 9.08125 6.60375 9.27 6.5525C9.4575 6.5 9.66 6.5 10.0625 6.5H15.9375C16.34 6.5 16.5413 6.5 16.73 6.55C16.9175 6.6025 17.0813 6.7 17.4075 6.89875L22.89 10.2213C23.2538 10.4413 23.4363 10.5525 23.5588 10.7037C23.6813 10.8562 23.7363 11.0375 23.8463 11.4012L24.25 12.75M1.75 26.5H24.25M3 10.25H22.375" stroke="black" stroke-width="1.875" stroke-linecap="round" stroke-linejoin="round"/>
<path d="M9.875 11.5L18 17.125L4.25 26.5" stroke="black" stroke-width="1.875" stroke-linecap="round" stroke-linejoin="round"/>
<path d="M16.125 11.5L8 17.125L21.75 26.5M9.25 6.5L11 3.7C11.9162 2.23375 12.375 1.5 13 1.5C13.625 1.5 14.0838 2.23375 15 3.7L16.75 6.5" stroke="black" stroke-width="1.875" stroke-linecap="round" stroke-linejoin="round"/>
</svg>
