<svg width="30" height="30" viewBox="0 0 30 30" fill="none" xmlns="http://www.w3.org/2000/svg">
<path d="M27.6844 5.76562C27.5419 5.68334 27.3802 5.64002 27.2156 5.64002C27.0511 5.64002 26.8894 5.68334 26.7469 5.76562L18.75 9.73125V6.5625C18.7495 6.40269 18.7082 6.24566 18.6299 6.10631C18.5517 5.96697 18.4391 5.84994 18.3029 5.76634C18.1667 5.68274 18.0114 5.63535 17.8517 5.62866C17.6921 5.62197 17.5333 5.65621 17.3906 5.72813L9.375 9.73125V2.8125C9.375 2.56386 9.27623 2.3254 9.10041 2.14959C8.9246 1.97377 8.68614 1.875 8.4375 1.875H2.8125C2.56386 1.875 2.3254 1.97377 2.14959 2.14959C1.97377 2.3254 1.875 2.56386 1.875 2.8125V26.25H28.125V6.5625C28.1253 6.40318 28.085 6.2464 28.0079 6.10697C27.9308 5.96755 27.8195 5.85007 27.6844 5.76562ZM20.625 24.375H16.875V17.8125H20.625V24.375ZM26.25 24.375H22.5V16.875C22.5 16.6264 22.4012 16.3879 22.2254 16.2121C22.0496 16.0363 21.8111 15.9375 21.5625 15.9375H15.9375C15.6889 15.9375 15.4504 16.0363 15.2746 16.2121C15.0988 16.3879 15 16.6264 15 16.875V24.375H3.75V3.75H7.5V12.7688L16.875 8.08125V12.7688L26.25 8.08125V24.375Z" fill="black"/>
</svg>
