<svg width="24" height="25" viewBox="0 0 24 25" fill="none" xmlns="http://www.w3.org/2000/svg">
<path d="M7 5.5C7 5.83152 6.8683 6.14946 6.63388 6.38388C6.39946 6.6183 6.08152 6.75 5.75 6.75C5.41848 6.75 5.10054 6.6183 4.86612 6.38388C4.6317 6.14946 4.5 5.83152 4.5 5.5C4.5 5.16848 4.6317 4.85054 4.86612 4.61612C5.10054 4.3817 5.41848 4.25 5.75 4.25C6.08152 4.25 6.39946 4.3817 6.63388 4.61612C6.8683 4.85054 7 5.16848 7 5.5ZM5.75 10.5C6.08152 10.5 6.39946 10.3683 6.63388 10.1339C6.8683 9.89946 7 9.58152 7 9.25C7 8.91848 6.8683 8.60054 6.63388 8.36612C6.39946 8.1317 6.08152 8 5.75 8C5.41848 8 5.10054 8.1317 4.86612 8.36612C4.6317 8.60054 4.5 8.91848 4.5 9.25C4.5 9.58152 4.6317 9.89946 4.86612 10.1339C5.10054 10.3683 5.41848 10.5 5.75 10.5ZM7 13C7 13.3315 6.8683 13.6495 6.63388 13.8839C6.39946 14.1183 6.08152 14.25 5.75 14.25C5.41848 14.25 5.10054 14.1183 4.86612 13.8839C4.6317 13.6495 4.5 13.3315 4.5 13C4.5 12.6685 4.6317 12.3505 4.86612 12.1161C5.10054 11.8817 5.41848 11.75 5.75 11.75C6.08152 11.75 6.39946 11.8817 6.63388 12.1161C6.8683 12.3505 7 12.6685 7 13ZM7 16.75C7 17.0815 6.8683 17.3995 6.63388 17.6339C6.39946 17.8683 6.08152 18 5.75 18C5.41848 18 5.10054 17.8683 4.86612 17.6339C4.6317 17.3995 4.5 17.0815 4.5 16.75C4.5 16.4185 4.6317 16.1005 4.86612 15.8661C5.10054 15.6317 5.41848 15.5 5.75 15.5C6.08152 15.5 6.39946 15.6317 6.63388 15.8661C6.8683 16.1005 7 16.4185 7 16.75ZM5.75 21.75C6.08152 21.75 6.39946 21.6183 6.63388 21.3839C6.8683 21.1495 7 20.8315 7 20.5C7 20.1685 6.8683 19.8505 6.63388 19.6161C6.39946 19.3817 6.08152 19.25 5.75 19.25C5.41848 19.25 5.10054 19.3817 4.86612 19.6161C4.6317 19.8505 4.5 20.1685 4.5 20.5C4.5 20.8315 4.6317 21.1495 4.86612 21.3839C5.10054 21.6183 5.41848 21.75 5.75 21.75ZM14.5 18C14.8315 18 15.1495 17.8683 15.3839 17.6339C15.6183 17.3995 15.75 17.0815 15.75 16.75C15.75 16.4185 15.6183 16.1005 15.3839 15.8661C15.1495 15.6317 14.8315 15.5 14.5 15.5C14.1685 15.5 13.8505 15.6317 13.6161 15.8661C13.3817 16.1005 13.25 16.4185 13.25 16.75C13.25 17.0815 13.3817 17.3995 13.6161 17.6339C13.8505 17.8683 14.1685 18 14.5 18ZM18.25 18C18.5815 18 18.8995 17.8683 19.1339 17.6339C19.3683 17.3995 19.5 17.0815 19.5 16.75C19.5 16.4185 19.3683 16.1005 19.1339 15.8661C18.8995 15.6317 18.5815 15.5 18.25 15.5C17.9185 15.5 17.6005 15.6317 17.3661 15.8661C17.1317 16.1005 17 16.4185 17 16.75C17 17.0815 17.1317 17.3995 17.3661 17.6339C17.6005 17.8683 17.9185 18 18.25 18ZM18.25 14.25C18.5815 14.25 18.8995 14.1183 19.1339 13.8839C19.3683 13.6495 19.5 13.3315 19.5 13C19.5 12.6685 19.3683 12.3505 19.1339 12.1161C18.8995 11.8817 18.5815 11.75 18.25 11.75C17.9185 11.75 17.6005 11.8817 17.3661 12.1161C17.1317 12.3505 17 12.6685 17 13C17 13.3315 17.1317 13.6495 17.3661 13.8839C17.6005 14.1183 17.9185 14.25 18.25 14.25ZM15.75 13C15.75 13.3315 15.6183 13.6495 15.3839 13.8839C15.1495 14.1183 14.8315 14.25 14.5 14.25C14.1685 14.25 13.8505 14.1183 13.6161 13.8839C13.3817 13.6495 13.25 13.3315 13.25 13C13.25 12.6685 13.3817 12.3505 13.6161 12.1161C13.8505 11.8817 14.1685 11.75 14.5 11.75C14.8315 11.75 15.1495 11.8817 15.3839 12.1161C15.6183 12.3505 15.75 12.6685 15.75 13ZM18.25 10.5C18.5815 10.5 18.8995 10.3683 19.1339 10.1339C19.3683 9.89946 19.5 9.58152 19.5 9.25C19.5 8.91848 19.3683 8.60054 19.1339 8.36612C18.8995 8.1317 18.5815 8 18.25 8C17.9185 8 17.6005 8.1317 17.3661 8.36612C17.1317 8.60054 17 8.91848 17 9.25C17 9.58152 17.1317 9.89946 17.3661 10.1339C17.6005 10.3683 17.9185 10.5 18.25 10.5ZM15.75 9.25C15.75 9.58152 15.6183 9.89946 15.3839 10.1339C15.1495 10.3683 14.8315 10.5 14.5 10.5C14.1685 10.5 13.8505 10.3683 13.6161 10.1339C13.3817 9.89946 13.25 9.58152 13.25 9.25C13.25 8.91848 13.3817 8.60054 13.6161 8.36612C13.8505 8.1317 14.1685 8 14.5 8C14.8315 8 15.1495 8.1317 15.3839 8.36612C15.6183 8.60054 15.75 8.91848 15.75 9.25ZM14.5 4.25V3.3125C14.5 2.56658 14.2037 1.85121 13.6762 1.32376C13.1488 0.796316 12.4334 0.5 11.6875 0.5H3.5625C2.81658 0.5 2.10121 0.796316 1.57376 1.32376C1.04632 1.85121 0.75 2.56658 0.75 3.3125V23.9375C0.75 24.455 1.17 24.875 1.6875 24.875H22.3125C22.5611 24.875 22.7996 24.7762 22.9754 24.6004C23.1512 24.4246 23.25 24.1861 23.25 23.9375V7.0625C23.25 6.31658 22.9537 5.60121 22.4262 5.07376C21.8988 4.54632 21.1834 4.25 20.4375 4.25H14.5ZM2.625 3.3125C2.625 3.06386 2.72377 2.8254 2.89959 2.64959C3.0754 2.47377 3.31386 2.375 3.5625 2.375H11.6875C11.9361 2.375 12.1746 2.47377 12.3504 2.64959C12.5262 2.8254 12.625 3.06386 12.625 3.3125V4.25H12.3125C11.5666 4.25 10.8512 4.54632 10.3238 5.07376C9.79632 5.60121 9.5 6.31658 9.5 7.0625V23H2.625V3.3125ZM15.125 23V21.125H17.625V23H15.125ZM19.5 20.1875C19.5 19.9389 19.4012 19.7004 19.2254 19.5246C19.0496 19.3488 18.8111 19.25 18.5625 19.25H14.1875C13.9389 19.25 13.7004 19.3488 13.5246 19.5246C13.3488 19.7004 13.25 19.9389 13.25 20.1875V23H11.375V7.0625C11.375 6.81386 11.4738 6.5754 11.6496 6.39959C11.8254 6.22377 12.0639 6.125 12.3125 6.125H20.4375C20.6861 6.125 20.9246 6.22377 21.1004 6.39959C21.2762 6.5754 21.375 6.81386 21.375 7.0625V23H19.5V20.1875Z" fill="black"/>
</svg>
