<svg width="28" height="28" viewBox="0 0 28 28" fill="none" xmlns="http://www.w3.org/2000/svg">
<path d="M18.0957 0.405273L17.2777 1.6515C19.515 3.10727 21.2431 5.10994 22.9542 8.86896L23.9402 7.41543C23.6381 6.39572 23.3073 5.31426 23.0027 4.40658C22.6747 3.42912 22.3266 2.59803 22.2348 2.46162C22.1575 2.34678 21.6051 1.90779 20.7975 1.5042C20.0777 1.14443 19.141 0.762695 18.0958 0.405332L18.0957 0.405273ZM18.5838 4.01055L15.3928 6.52973C16.0233 6.89154 16.4768 7.53062 16.583 8.27746L19.9522 5.61754C19.5114 5.00295 19.0593 4.47584 18.5838 4.01055ZM14.2051 7.26707C13.4545 7.26707 12.8574 7.86414 12.8574 8.61473C12.8574 9.36525 13.4545 9.96238 14.2051 9.96238C14.9557 9.96238 15.5527 9.36525 15.5527 8.61473C15.5527 7.86414 14.9557 7.26707 14.2051 7.26707ZM11.8999 9.28715L4.12637 15.4242C4.82 15.6978 5.32203 16.3625 5.35537 17.1413L13.3262 10.8486C12.642 10.577 12.1094 9.99947 11.8999 9.28715ZM22.1152 9.54777V21.8528H23.1699V10.4296L22.755 11.0413L22.3769 10.1496C22.2913 9.94827 22.2041 9.74766 22.1152 9.54777ZM16.6873 9.57959L15.7606 10.297L15.9828 11.3526L15.1317 10.7838L14.2522 11.4647L15.9395 12.5922L11.7614 14.516L12.0438 13.1744L10.7562 14.1713L9.3292 20.9493L9.30342 20.9607L9.31936 20.9965L8.15217 26.5403H7.23242V27.595H20.2402V26.456L16.6873 9.57959ZM16.4397 13.5229L17.144 16.868L12.5117 15.3317L16.4397 13.5229ZM11.4313 16.0845L16.4956 17.7641L10.5184 20.4207L11.4313 16.0845ZM3.42383 16.3451C2.93223 16.3451 2.54492 16.7323 2.54492 17.224C2.54492 17.7156 2.93223 18.1029 3.42383 18.1029C3.91543 18.1029 4.30273 17.7156 4.30273 17.224C4.30273 16.7324 3.91543 16.3451 3.42383 16.3451ZM17.4831 18.4795L18.3593 22.6413L11.7995 21.0055L17.4831 18.4795ZM4.66139 18.7052C4.39215 18.9308 4.06139 19.0849 3.69928 19.1374L4.94533 21.8529H6.10572L4.66139 18.7052ZM2.18686 18.7056L0.741934 21.8529H1.90256L3.1492 19.1375C2.78703 19.0852 2.45615 18.9312 2.18686 18.7056ZM10.2478 21.7056L17.0905 23.4118L9.29158 26.2479L10.2478 21.7056ZM0.669922 22.9074V26.5403H6.17773V22.9074H0.669922ZM21.2949 22.9074V23.8449H23.9902V22.9074H21.2949ZM18.6392 23.9709L19.1802 26.5403H11.5735L18.6392 23.9709ZM21.2949 24.8996V26.5403H23.9902V24.8996H21.2949ZM25.0449 26.5403V27.5949H27.3301V26.5403H25.0449Z" fill="black"/>
</svg>
