<svg width="28" height="24" viewBox="0 0 28 24" fill="none" xmlns="http://www.w3.org/2000/svg">
<path d="M23.934 0.75C24.1327 0.75 24.3034 0.91875 24.3034 1.13625H24.3127V5.4375H27.1252V11.0625H12.1252L12.653 9.1875H18.6455C19.178 9.17813 19.6252 9.17062 19.6252 8.25C19.6252 7.3125 19.1612 7.3125 18.6165 7.3125H13.1809L13.5924 5.85C13.6235 5.7319 13.6927 5.62739 13.7894 5.55278C13.886 5.47816 14.0047 5.43763 14.1268 5.4375H17.7502L19.6252 2.625L20.2468 1.54125C20.3814 1.30272 20.5766 1.10395 20.8127 0.965019C21.0487 0.826088 21.3173 0.751917 21.5912 0.75H23.934ZM22.7471 9.17812C23.094 9.17812 23.3659 8.89688 23.3659 8.55937V7.93125C23.3659 7.58437 23.0846 7.3125 22.7471 7.3125H22.119C21.7721 7.3125 21.5002 7.59375 21.5002 7.93125V8.55937C21.5002 8.90625 21.7721 9.17812 22.119 9.17812H22.7471ZM1.82679 12C1.19491 12 0.741165 12.6019 0.910852 13.2038L2.75023 19.5L3.96148 23.0466C4.02148 23.0509 4.08648 23.0531 4.15648 23.0531C4.69554 23.0531 4.91773 22.9106 5.27491 22.6819L5.28242 22.6772C5.74179 22.3828 6.3371 22.0031 7.42835 22.0031C8.5196 22.0031 9.11585 22.3828 9.57523 22.6763L9.58085 22.68C9.93898 22.9097 10.164 23.0531 10.7096 23.0531C11.2552 23.0531 11.4802 22.9097 11.8384 22.68L11.8449 22.6763C12.3043 22.3828 12.8996 22.0031 13.9909 22.0031C15.0821 22.0031 15.6784 22.3828 16.1377 22.6763L16.1434 22.68C16.5015 22.9097 16.7265 23.0531 17.2721 23.0531C17.8177 23.0531 18.0427 22.9097 18.4009 22.68L18.4074 22.6763C18.8668 22.3828 19.4621 22.0031 20.5534 22.0031C21.6474 22.0031 22.2455 22.3809 22.7068 22.6753L22.7143 22.68C23.0734 22.9097 23.2984 23.0531 23.844 23.0531C24.3971 23.0531 24.624 22.9078 24.9821 22.6791L24.9887 22.6753C25.4462 22.3837 26.0405 22.005 27.1252 22.0031V12H1.82679ZM12.7477 16.6875C12.5831 16.686 12.4256 16.62 12.3092 16.5036C12.1928 16.3871 12.1267 16.2296 12.1252 16.065V15.435C12.1252 15.0956 12.3999 14.8125 12.7477 14.8125H13.3777C13.7171 14.8125 14.0002 15.0872 14.0002 15.435V16.065C14.0002 16.2301 13.9346 16.3884 13.8179 16.5052C13.7012 16.6219 13.5428 16.6875 13.3777 16.6875H12.7477ZM17.1277 16.6875H16.4977C16.3326 16.6875 16.1743 16.6219 16.0576 16.5052C15.9408 16.3884 15.8752 16.2301 15.8752 16.065V15.435C15.8752 15.0956 16.1499 14.8125 16.4977 14.8125H17.1277C17.4671 14.8125 17.7502 15.0872 17.7502 15.435V16.065C17.7502 16.1467 17.7341 16.2277 17.7028 16.3032C17.6716 16.3787 17.6257 16.4474 17.5679 16.5052C17.5101 16.563 17.4415 16.6088 17.3659 16.6401C17.2904 16.6714 17.2095 16.6875 17.1277 16.6875ZM20.2477 16.6875C20.166 16.6875 20.085 16.6714 20.0095 16.6401C19.934 16.6088 19.8654 16.563 19.8076 16.5052C19.7497 16.4474 19.7039 16.3787 19.6726 16.3032C19.6413 16.2277 19.6252 16.1467 19.6252 16.065V15.435C19.6252 15.0956 19.8999 14.8125 20.2477 14.8125H20.8777C21.2171 14.8125 21.5002 15.0872 21.5002 15.435V16.065C21.5002 16.2301 21.4346 16.3884 21.3179 16.5052C21.2012 16.6219 21.0428 16.6875 20.8777 16.6875H20.2477ZM24.6277 16.6875H23.9977C23.8326 16.6875 23.6743 16.6219 23.5576 16.5052C23.4408 16.3884 23.3752 16.2301 23.3752 16.065V15.435C23.3752 15.0956 23.6499 14.8125 23.9977 14.8125H24.6277C24.9671 14.8125 25.2502 15.0872 25.2502 15.435V16.065C25.2502 16.2301 25.1846 16.3884 25.0679 16.5052C24.9512 16.6219 24.7928 16.6875 24.6277 16.6875Z" fill="black"/>
</svg>
